<?xml version="1.0" standalone="no"?>
<!DOCTYPE svg PUBLIC "-//W3C//DTD SVG 20010904//EN"
 "http://www.w3.org/TR/2001/REC-SVG-20010904/DTD/svg10.dtd">
<svg version="1.0" xmlns="http://www.w3.org/2000/svg"
 width="1792.000000pt" height="1792.000000pt" viewBox="0 0 1792.000000 1792.000000"
 preserveAspectRatio="xMidYMid meet">
<metadata>
Created by potrace 1.14, written by Peter Selinger 2001-2017
</metadata>
<g transform="translate(0.000000,1792.000000) scale(0.100000,-0.100000)"
fill="#000000" stroke="none">
<path d="M4258 13515 c-2 -1 -41 -6 -88 -9 -124 -9 -191 -15 -225 -21 -16 -3
-50 -8 -75 -11 -41 -5 -335 -61 -370 -70 -8 -2 -42 -11 -75 -19 -33 -9 -70
-18 -83 -21 -13 -2 -44 -12 -70 -21 -26 -8 -54 -17 -62 -18 -8 -2 -15 -4 -15
-5 0 -1 -7 -3 -15 -5 -66 -13 -479 -176 -550 -217 -8 -4 -22 -11 -30 -14 -22
-9 -242 -120 -282 -142 -105 -60 -165 -96 -240 -144 -31 -21 -59 -38 -62 -38
-3 0 -26 -15 -50 -32 -25 -18 -61 -44 -81 -58 -20 -14 -42 -29 -48 -35 -7 -5
-48 -37 -92 -70 -44 -33 -82 -63 -85 -67 -3 -3 -22 -20 -42 -36 -113 -89 -331
-300 -448 -431 -36 -41 -69 -79 -75 -85 -12 -13 -89 -110 -126 -157 -73 -93
-99 -130 -99 -139 0 -6 -4 -10 -8 -10 -4 0 -16 -15 -27 -32 -10 -18 -23 -37
-28 -43 -15 -18 -131 -200 -156 -246 -14 -24 -27 -46 -30 -49 -13 -11 -201
-385 -201 -400 0 -5 -5 -10 -12 -10 -6 0 -9 -3 -5 -6 3 -4 -1 -21 -10 -38 -9
-17 -18 -35 -19 -41 -2 -5 -21 -55 -44 -110 -79 -191 -207 -605 -194 -626 3
-5 1 -9 -4 -9 -5 0 -9 -6 -9 -12 -1 -12 -3 -24 -18 -98 -14 -69 -32 -169 -39
-220 -2 -19 -8 -57 -12 -85 -4 -27 -8 -66 -10 -85 -1 -19 -3 -35 -4 -35 -3 0
-3 -8 -16 -200 -12 -194 -7 -542 10 -695 3 -19 7 -64 10 -100 3 -36 8 -76 11
-90 2 -14 7 -43 10 -65 3 -23 7 -52 10 -65 3 -14 7 -38 10 -55 12 -72 33 -170
51 -244 9 -36 18 -72 20 -80 15 -64 41 -154 76 -256 22 -66 41 -124 42 -130 1
-5 4 -14 7 -20 4 -5 12 -28 19 -50 7 -22 22 -60 33 -85 10 -25 25 -58 32 -75
69 -165 208 -443 245 -489 8 -10 14 -21 13 -25 -1 -7 44 -84 104 -177 24 -35
43 -67 43 -70 0 -3 5 -10 10 -17 6 -7 47 -64 92 -127 69 -98 177 -237 213
-276 5 -6 30 -35 55 -65 25 -30 108 -117 185 -194 134 -134 181 -178 324 -297
62 -52 269 -203 356 -260 117 -76 302 -188 311 -188 3 0 19 -9 35 -21 16 -11
29 -17 29 -14 0 3 12 -2 28 -13 25 -17 257 -132 266 -132 3 0 33 -13 68 -29
88 -40 319 -130 348 -136 8 -2 56 -17 105 -34 50 -17 99 -32 110 -34 11 -2 27
-7 35 -10 16 -6 220 -56 258 -63 12 -2 34 -7 50 -10 15 -3 43 -7 62 -10 19 -3
46 -7 60 -11 14 -3 36 -7 51 -9 23 -2 57 -7 119 -18 14 -3 51 -7 83 -10 32 -3
62 -8 68 -11 5 -4 9 -1 9 5 0 6 5 8 11 4 16 -9 67 -14 210 -18 70 -2 131 -6
136 -9 5 -3 15 -2 21 2 7 4 33 5 57 1 25 -4 47 -5 50 -2 2 3 53 6 112 7 131 4
276 15 383 31 19 3 54 7 76 10 23 3 53 7 65 10 13 2 41 7 62 10 43 7 70 12 77
14 3 1 8 2 11 2 3 -1 30 5 60 13 29 8 55 12 57 10 3 -2 12 0 22 5 9 5 30 12
46 14 16 3 70 17 119 31 50 14 101 28 114 31 34 7 315 108 396 142 209 87 474
218 620 305 55 33 109 65 120 71 34 19 209 139 223 153 7 7 17 13 22 13 5 0
15 6 22 13 7 6 40 32 73 56 33 25 62 47 65 50 4 5 67 57 134 111 81 65 303
284 393 386 96 109 104 119 126 147 12 16 27 34 32 40 6 7 24 30 40 52 17 22
32 42 35 45 24 21 230 327 230 341 0 5 5 9 10 9 6 0 10 4 10 10 0 5 16 34 35
64 19 30 35 59 35 65 0 5 6 16 13 23 6 7 28 45 47 83 19 39 38 72 43 73 4 2 7
7 7 12 0 4 25 61 56 126 52 111 85 182 89 194 5 14 19 48 30 75 52 124 149
413 171 510 1 6 12 48 24 95 12 47 24 96 26 110 3 14 11 59 19 100 56 288 79
543 78 855 -1 228 -15 443 -39 586 -3 24 -7 49 -19 135 -2 11 -8 47 -15 79 -7
32 -14 68 -15 79 -8 51 -38 171 -70 286 -20 69 -38 132 -40 140 -5 19 -64 189
-75 215 -4 11 -16 40 -25 65 -9 25 -23 59 -30 75 -7 17 -30 68 -51 115 -63
146 -142 306 -194 396 -28 48 -50 89 -50 91 0 8 -115 188 -122 191 -4 2 -6 8
-2 13 3 5 0 9 -5 9 -6 0 -11 4 -11 10 0 5 -7 18 -14 27 -8 10 -45 61 -82 113
-83 116 -143 193 -252 320 -53 61 -345 356 -407 410 -22 20 -87 74 -145 120
-58 47 -106 88 -108 93 -2 4 -9 7 -17 7 -7 0 -18 7 -25 15 -6 8 -37 31 -68 52
-32 20 -61 41 -67 46 -28 24 -162 106 -172 107 -7 0 -13 5 -13 10 0 6 -7 10
-15 10 -8 0 -15 4 -15 9 0 5 -8 11 -17 14 -10 4 -45 22 -78 42 -33 20 -80 46
-105 58 -25 12 -46 25 -48 30 -2 4 -8 7 -12 7 -5 0 -53 21 -107 48 -82 40
-176 81 -378 167 -91 39 -439 149 -500 159 -11 2 -20 4 -20 5 0 4 -40 12 -57
12 -10 0 -20 5 -23 10 -4 5 -10 7 -14 4 -5 -2 -23 0 -42 5 -30 9 -178 37 -234
45 -11 2 -40 6 -65 10 -109 16 -155 21 -260 31 -61 6 -627 14 -632 9z m272
-355 c8 5 21 6 29 2 9 -4 67 -7 128 -7 62 0 113 -2 113 -5 0 -3 24 -6 53 -6
49 -2 131 -9 207 -20 19 -3 53 -7 75 -10 35 -5 127 -22 205 -38 14 -3 50 -11
80 -16 30 -6 66 -15 80 -20 14 -5 36 -12 50 -14 34 -6 200 -55 225 -65 11 -5
56 -21 100 -36 320 -111 702 -303 1000 -504 44 -30 82 -58 83 -63 2 -4 8 -8
14 -8 8 0 49 -30 162 -123 199 -162 413 -372 556 -547 25 -30 55 -66 67 -80
13 -14 23 -28 23 -32 0 -3 6 -13 13 -20 26 -26 177 -245 177 -257 0 -6 4 -11
8 -11 5 0 15 -12 23 -27 7 -16 26 -47 41 -70 15 -23 28 -44 28 -46 0 -2 22
-42 48 -88 65 -114 194 -381 217 -449 1 -3 6 -16 12 -30 6 -14 23 -56 38 -95
15 -38 30 -79 35 -90 15 -37 82 -250 86 -275 3 -14 7 -32 10 -40 15 -40 69
-280 80 -355 7 -52 15 -102 19 -120 2 -11 7 -47 10 -80 4 -33 8 -76 11 -95 22
-184 22 -685 0 -795 -3 -17 -11 -87 -22 -195 -1 -14 -3 -26 -4 -27 -2 -2 -4
-12 -5 -23 -1 -11 -4 -23 -5 -27 -1 -5 -2 -11 -1 -15 0 -4 -8 -49 -19 -100
-11 -51 -22 -102 -24 -113 -4 -18 -24 -105 -30 -130 -2 -5 -6 -17 -9 -25 -5
-14 -22 -78 -32 -125 -3 -11 -9 -31 -14 -45 -5 -14 -29 -79 -52 -145 -23 -66
-46 -124 -50 -129 -5 -6 -9 -16 -9 -24 0 -7 -11 -38 -25 -68 -14 -30 -25 -57
-25 -60 0 -2 -22 -49 -49 -104 -27 -55 -47 -100 -44 -100 2 0 -5 -14 -17 -30
-12 -17 -23 -36 -24 -43 -2 -10 -61 -118 -101 -185 -6 -9 -23 -39 -39 -67 -38
-65 -201 -305 -224 -331 -9 -10 -31 -37 -47 -60 -35 -48 -92 -117 -155 -188
-62 -71 -307 -314 -359 -356 -23 -19 -50 -42 -59 -51 -28 -26 -205 -164 -237
-185 -16 -10 -36 -24 -43 -31 -7 -7 -17 -13 -22 -13 -5 0 -15 -6 -22 -13 -17
-17 -99 -70 -218 -143 -89 -54 -440 -237 -440 -229 0 2 -26 -9 -57 -24 -70
-34 -326 -131 -345 -131 -8 0 -18 -4 -24 -10 -5 -5 -21 -11 -34 -14 -14 -2
-26 -5 -27 -5 -2 -1 -6 -2 -10 -2 -5 -1 -33 -10 -63 -21 -30 -10 -57 -19 -60
-19 -3 0 -23 -4 -45 -10 -22 -6 -49 -13 -60 -15 -11 -2 -60 -13 -110 -23 -49
-11 -106 -23 -125 -26 -62 -11 -94 -16 -125 -20 -16 -2 -48 -6 -70 -9 -195
-26 -275 -31 -540 -30 -215 0 -349 5 -455 19 -14 1 -50 6 -80 9 -30 4 -68 9
-83 12 -30 6 -41 8 -120 18 -26 4 -60 11 -74 17 -14 5 -28 8 -30 5 -3 -2 -22
2 -44 9 -21 8 -39 12 -39 10 0 -2 -33 5 -72 17 -74 20 -94 25 -137 34 -13 3
-32 9 -43 15 -10 5 -18 7 -18 3 0 -3 -6 -2 -12 4 -10 8 -59 23 -88 27 -6 0
-23 7 -171 64 -58 23 -111 41 -117 41 -7 0 -12 5 -12 10 0 6 -3 9 -7 8 -25 -5
-413 189 -557 280 -54 34 -102 62 -107 62 -5 0 -9 5 -9 10 0 6 -7 10 -15 10
-8 0 -15 5 -15 10 0 6 -7 10 -15 10 -8 0 -15 3 -15 8 0 4 -9 12 -19 17 -24 12
-205 144 -242 177 -15 13 -38 32 -51 43 -14 11 -45 36 -68 55 -65 52 -337 325
-405 405 -33 39 -62 72 -65 75 -3 3 -28 34 -55 70 -28 36 -52 67 -55 70 -16
15 -110 152 -110 159 0 5 -7 14 -15 21 -12 10 -118 176 -151 235 -6 11 -28 52
-50 90 -58 103 -201 397 -209 430 -1 6 -9 26 -18 46 -21 48 -107 297 -113 328
-3 14 -8 29 -12 35 -6 11 -8 15 -14 51 -2 11 -6 25 -9 30 -6 9 -21 82 -19 87
1 2 -3 15 -9 31 -6 15 -13 38 -15 50 -3 12 -7 31 -9 42 -2 11 -7 36 -11 55 -3
19 -8 46 -11 60 -3 14 -8 41 -11 60 -3 19 -7 46 -10 60 -3 14 -7 45 -9 70 -3
25 -8 63 -11 85 -11 77 -13 91 -20 225 -12 211 -6 601 11 660 2 8 7 49 11 90
9 101 12 125 14 125 1 0 3 14 5 30 2 17 6 44 9 60 4 17 9 46 12 65 8 47 12 65
14 65 1 0 3 9 5 20 3 20 31 145 40 178 3 9 7 25 9 35 12 51 94 302 131 397 15
39 29 80 32 93 3 12 10 22 16 22 6 0 7 3 4 6 -4 4 2 23 12 43 11 20 29 59 41
86 21 47 102 213 120 245 5 8 19 33 32 55 12 22 23 42 24 45 3 22 217 347 299
455 82 108 175 219 186 223 5 2 9 8 9 14 0 12 296 308 369 368 30 25 59 50 65
55 6 6 34 28 61 50 28 22 52 43 53 47 2 5 9 8 16 8 7 0 23 11 36 25 13 14 29
25 36 25 7 0 14 4 16 8 4 11 174 127 268 182 41 24 78 49 82 55 4 5 8 6 8 1 0
-5 8 -2 18 6 9 8 31 22 47 30 17 8 89 44 160 81 135 68 350 162 445 193 30 11
58 24 62 29 4 6 8 7 8 4 0 -4 37 6 83 21 46 16 94 31 108 34 13 3 56 15 94 26
39 11 79 22 90 25 11 2 31 7 45 10 14 3 35 8 48 11 12 2 32 6 45 8 12 3 32 7
43 10 12 2 39 7 60 10 22 4 63 11 92 17 29 6 59 8 67 6 7 -3 16 -3 19 1 7 7 8
7 92 17 85 10 153 15 287 19 65 2 120 6 123 9 4 3 16 2 28 -3 13 -4 29 -4 36
0z"/>
<path d="M4278 12795 c-2 -2 -48 -6 -103 -10 -54 -3 -102 -8 -105 -10 -3 -1
-34 -6 -70 -9 -65 -7 -105 -13 -105 -16 0 -1 -11 -3 -25 -5 -29 -3 -85 -12
-120 -20 -38 -9 -63 -14 -85 -19 -11 -2 -40 -10 -65 -16 -25 -7 -52 -14 -60
-15 -41 -4 -343 -105 -430 -143 -19 -9 -37 -16 -40 -17 -61 -18 -454 -219
-491 -251 -8 -8 -19 -14 -23 -14 -4 0 -34 -18 -67 -40 -33 -22 -62 -40 -65
-40 -5 0 -217 -154 -260 -189 -18 -15 -41 -33 -52 -41 -95 -72 -343 -313 -453
-441 -83 -96 -89 -103 -142 -174 -48 -65 -70 -93 -82 -108 -6 -6 -26 -37 -45
-67 -19 -30 -40 -61 -47 -68 -6 -6 -15 -21 -18 -32 -3 -11 -11 -20 -16 -20 -5
0 -9 -4 -9 -9 0 -5 -18 -38 -40 -72 -22 -35 -44 -73 -49 -84 -5 -11 -27 -53
-49 -92 -22 -40 -38 -73 -35 -73 3 0 -1 -8 -10 -17 -8 -10 -16 -21 -16 -26 0
-4 -7 -20 -15 -35 -7 -15 -32 -72 -55 -127 -23 -55 -46 -109 -51 -120 -13 -28
-99 -290 -103 -312 -1 -10 -6 -23 -10 -30 -4 -6 -9 -24 -12 -40 -2 -15 -11
-57 -20 -93 -9 -36 -18 -75 -19 -87 -2 -11 -7 -29 -10 -40 -3 -10 -8 -36 -11
-58 -3 -22 -7 -51 -10 -65 -3 -14 -8 -47 -11 -75 -3 -27 -8 -61 -10 -75 -30
-158 -35 -653 -9 -875 3 -34 15 -130 20 -160 1 -11 6 -45 10 -75 4 -30 9 -58
11 -61 2 -3 6 -25 9 -49 3 -23 7 -45 10 -49 2 -4 7 -23 10 -42 3 -19 8 -42 11
-51 3 -9 7 -25 9 -37 7 -39 46 -177 61 -213 7 -21 11 -38 7 -38 -4 0 -2 -5 5
-12 7 -7 12 -21 12 -33 0 -12 4 -25 8 -30 4 -6 14 -28 21 -50 8 -22 18 -51 24
-65 6 -14 11 -27 12 -30 1 -3 7 -18 13 -33 7 -16 12 -30 12 -32 0 -6 118 -258
129 -275 5 -8 22 -40 37 -70 15 -30 30 -57 33 -60 4 -3 12 -16 19 -30 15 -31
17 -34 127 -199 50 -73 95 -141 100 -150 6 -9 12 -18 15 -21 3 -3 30 -36 59
-75 150 -194 400 -447 596 -603 138 -110 153 -121 177 -137 9 -5 60 -40 114
-76 124 -83 178 -116 184 -115 3 0 19 -9 37 -22 43 -30 302 -162 319 -162 8 0
14 -5 14 -10 0 -6 3 -9 8 -8 4 1 18 -4 32 -9 14 -6 50 -21 80 -32 30 -12 69
-28 87 -36 17 -8 37 -15 45 -15 8 0 18 -3 22 -7 4 -5 11 -8 14 -9 4 0 52 -14
107 -31 109 -35 181 -55 205 -59 8 -2 33 -7 55 -13 41 -10 69 -16 120 -26 32
-6 64 -12 105 -20 14 -3 45 -8 70 -10 25 -3 52 -7 60 -10 14 -5 40 -7 175 -20
22 -2 114 -6 205 -10 90 -4 167 -7 170 -7 3 0 7 0 10 1 3 1 59 4 125 6 66 2
143 6 170 9 181 17 206 20 265 30 73 12 86 15 140 26 30 6 71 13 90 16 19 3
38 8 42 11 5 2 17 6 28 8 11 2 48 11 83 20 34 9 69 18 77 20 22 5 262 85 285
95 11 5 67 28 125 52 58 23 107 46 108 50 2 4 9 8 15 8 12 0 198 92 247 121
14 9 77 46 140 84 63 38 124 77 134 87 11 10 25 18 32 18 7 0 14 4 16 8 2 4
43 37 93 72 49 36 97 72 106 80 8 8 32 28 53 44 123 96 414 388 497 498 13 18
31 39 39 48 8 9 28 34 44 55 17 22 32 42 35 45 4 3 11 12 16 21 6 9 39 58 75
110 36 52 69 102 75 111 5 9 26 43 45 75 19 32 37 63 39 68 2 6 12 22 22 36
28 39 151 291 199 404 43 102 154 427 164 480 3 17 10 50 16 75 21 83 27 110
36 160 4 19 8 44 11 55 2 11 6 36 8 55 3 19 7 44 10 55 8 37 22 174 31 305 7
93 7 458 0 530 -2 25 -7 81 -11 125 -3 44 -8 91 -11 105 -3 14 -7 45 -10 70
-2 25 -9 66 -15 92 -6 25 -12 57 -14 70 -2 12 -6 34 -9 48 -3 14 -8 36 -11 50
-4 14 -9 36 -12 50 -3 14 -6 31 -6 38 0 6 -4 12 -9 12 -5 0 -7 4 -4 9 7 11
-60 247 -76 265 -4 6 -8 17 -8 25 0 41 -177 441 -257 581 -11 19 -35 62 -54
95 -18 33 -37 62 -41 63 -4 2 -8 8 -8 14 0 11 -155 242 -182 272 -10 11 -18
23 -18 27 0 5 -10 19 -22 31 -13 13 -34 39 -48 58 -14 19 -37 48 -52 63 -16
16 -28 31 -28 33 0 14 -279 297 -363 369 -26 22 -62 53 -80 68 -17 16 -66 54
-107 85 -41 31 -77 58 -80 61 -3 4 -45 33 -95 67 -260 176 -567 335 -840 436
-83 31 -320 105 -358 112 -12 2 -51 12 -87 21 -75 20 -71 19 -170 35 -41 6
-86 14 -100 16 -36 7 -65 11 -145 19 -38 3 -81 9 -95 12 -26 5 -577 13 -582 8z
m389 -361 c132 -5 236 -14 333 -28 104 -15 165 -27 320 -62 14 -3 31 -6 38 -6
6 -1 12 -5 12 -10 0 -5 4 -7 8 -4 8 4 77 -15 242 -67 161 -51 533 -226 685
-322 134 -84 303 -201 325 -225 3 -3 28 -23 55 -45 83 -65 114 -94 255 -235
147 -147 157 -158 249 -275 34 -44 71 -90 82 -101 10 -12 19 -25 19 -29 0 -4
14 -24 30 -45 17 -21 30 -42 30 -47 0 -5 8 -18 18 -29 22 -25 29 -37 99 -159
72 -126 203 -391 203 -410 0 -3 9 -24 19 -48 10 -23 24 -55 29 -72 6 -16 20
-55 32 -85 12 -30 23 -62 25 -70 2 -8 17 -64 35 -125 17 -60 40 -155 51 -210
11 -55 22 -107 24 -115 1 -8 6 -37 9 -65 4 -27 9 -61 11 -75 6 -26 11 -79 22
-225 11 -155 6 -459 -12 -595 -2 -19 -6 -55 -9 -80 -3 -25 -7 -54 -10 -65 -2
-11 -10 -54 -17 -95 -14 -80 -15 -89 -18 -92 -2 -2 -4 -16 -6 -32 -6 -42 -34
-153 -57 -221 -11 -33 -22 -70 -24 -81 -6 -30 -99 -277 -131 -344 -83 -178
-174 -349 -248 -469 -25 -40 -89 -137 -97 -146 -4 -5 -44 -57 -89 -115 -188
-246 -411 -463 -664 -646 -63 -47 -99 -70 -260 -173 -64 -41 -408 -211 -500
-247 -77 -29 -291 -104 -315 -109 -8 -1 -35 -9 -60 -16 -67 -19 -67 -19 -135
-34 -11 -2 -31 -6 -45 -10 -51 -11 -85 -17 -235 -41 -140 -22 -241 -28 -475
-28 -211 0 -298 4 -431 21 -30 4 -66 7 -81 7 -16 1 -28 4 -28 7 0 3 -6 6 -12
6 -7 0 -47 6 -88 13 -103 17 -100 16 -150 30 -43 12 -70 18 -97 24 -7 1 -16 5
-19 9 -4 4 -15 7 -24 7 -24 0 -286 87 -345 115 -16 8 -79 35 -140 61 -60 26
-118 54 -127 62 -10 8 -18 12 -18 8 0 -4 -13 2 -29 13 -16 12 -32 21 -35 21
-11 0 -191 103 -194 112 -2 4 -8 8 -14 8 -8 0 -53 29 -193 124 -22 15 -51 37
-65 49 -14 12 -41 33 -60 47 -19 13 -37 27 -40 30 -3 3 -34 30 -70 59 -109 92
-295 282 -382 392 -15 19 -34 43 -43 54 -66 84 -231 325 -248 365 -4 8 -18 33
-31 55 -77 123 -287 593 -291 650 0 6 -11 42 -24 80 -12 39 -25 79 -27 90 -3
11 -7 27 -9 35 -2 8 -4 16 -5 18 -2 1 -3 5 -4 10 -1 4 -8 36 -15 72 -7 36 -15
72 -19 80 -3 8 -6 22 -7 30 -1 8 -6 47 -13 85 -23 136 -30 194 -38 310 -12
176 -7 522 10 625 3 14 7 48 10 75 3 28 10 77 16 110 6 33 13 76 16 95 8 46
12 64 14 68 6 6 24 105 22 115 -1 4 2 7 6 7 4 0 8 8 9 18 1 17 39 155 50 182
3 8 7 17 8 20 9 36 48 143 66 185 16 39 38 95 38 100 1 3 12 26 26 53 14 26
25 52 25 58 0 6 7 17 15 24 9 7 13 15 11 17 -10 10 205 393 226 401 4 2 8 8 8
13 0 9 79 123 127 184 13 17 27 35 31 40 76 105 266 305 397 420 37 33 74 66
81 73 7 6 16 12 21 12 4 0 14 9 21 20 7 11 17 20 23 20 5 0 21 11 35 25 14 14
28 25 32 25 6 0 27 16 79 60 7 5 14 10 17 10 3 0 34 20 71 45 36 25 107 69
158 97 50 29 94 56 95 60 2 5 8 8 12 8 5 0 74 31 152 68 149 72 351 155 374
155 8 0 14 3 14 7 0 4 6 7 13 7 6 0 57 14 113 32 55 17 110 34 122 36 12 3 30
7 40 9 46 12 219 47 256 52 22 3 50 7 61 9 19 3 83 11 175 21 25 3 107 7 183
9 77 2 141 6 144 9 3 3 10 3 14 0 5 -3 61 -7 126 -10z"/>
<path d="M4488 12085 c-3 -3 -61 -7 -130 -10 -68 -2 -140 -7 -159 -9 -19 -3
-56 -8 -84 -11 -43 -4 -107 -15 -181 -29 -12 -2 -39 -7 -59 -10 -21 -4 -44
-11 -50 -16 -7 -5 -14 -7 -17 -4 -6 5 -110 -21 -203 -51 -27 -9 -57 -18 -65
-20 -57 -12 -379 -152 -392 -170 -4 -5 -8 -7 -8 -3 0 8 -55 -21 -151 -78 -31
-19 -61 -34 -67 -34 -6 0 -12 -3 -14 -7 -1 -5 -50 -39 -107 -77 -174 -114
-353 -266 -515 -435 -68 -71 -66 -69 -111 -126 -22 -27 -47 -57 -55 -66 -8
-10 -19 -24 -25 -31 -58 -76 -77 -104 -122 -173 -29 -44 -56 -85 -60 -90 -15
-20 -44 -70 -61 -105 -9 -19 -20 -37 -24 -40 -10 -8 -158 -321 -158 -335 0 -4
-7 -21 -15 -38 -21 -46 -82 -235 -90 -279 -4 -21 -10 -38 -14 -38 -4 0 -7 -8
-7 -17 -1 -23 -14 -84 -19 -92 -2 -4 -6 -25 -9 -47 -4 -22 -9 -51 -11 -64 -9
-43 -13 -73 -20 -129 -4 -30 -8 -62 -10 -73 -23 -117 -23 -503 -1 -723 6 -54
26 -174 51 -302 9 -46 46 -185 62 -233 8 -25 16 -52 18 -60 2 -8 13 -40 25
-70 12 -30 25 -66 29 -80 27 -83 204 -440 224 -448 4 -2 7 -8 7 -14 0 -12 147
-233 166 -249 8 -6 14 -16 14 -21 0 -5 6 -15 13 -23 6 -7 28 -32 47 -56 85
-105 107 -129 195 -219 105 -106 190 -183 274 -248 31 -24 58 -48 59 -53 2 -5
9 -9 15 -9 7 0 23 -10 37 -22 33 -30 217 -150 226 -148 4 1 10 -3 13 -8 10
-15 278 -158 316 -168 6 -2 66 -26 135 -54 69 -28 172 -65 230 -82 58 -16 112
-32 120 -35 8 -3 22 -7 30 -8 8 -1 31 -6 50 -10 19 -5 42 -9 50 -11 8 -1 25
-4 36 -7 12 -3 37 -8 55 -11 19 -3 43 -7 54 -10 11 -2 51 -7 88 -11 37 -3 78
-8 90 -11 11 -2 77 -6 146 -9 68 -3 126 -7 128 -9 2 -2 16 -1 31 3 15 4 39 4
54 0 14 -4 29 -5 32 -1 3 3 45 7 93 9 49 1 106 5 128 7 22 2 68 7 102 11 34 3
72 8 85 11 13 3 37 7 53 10 49 8 207 43 243 53 17 5 32 7 32 4 0 -3 6 -1 13 5
7 6 26 13 42 16 109 19 460 167 630 265 52 31 247 153 260 163 6 5 45 35 87
66 203 153 382 327 548 532 53 66 170 231 170 240 0 5 6 15 13 22 17 18 77
116 77 127 0 5 7 14 15 21 8 7 13 16 10 20 -3 5 -1 12 5 15 17 10 184 365 188
398 0 4 10 32 21 61 29 79 99 338 105 392 3 25 8 49 10 52 5 9 16 73 21 132 3
25 7 54 9 65 24 102 24 565 1 725 -2 14 -6 45 -9 70 -3 25 -8 56 -10 70 -3 14
-7 41 -10 60 -9 55 -14 78 -41 185 -14 55 -27 105 -28 110 -1 6 -6 16 -10 23
-5 6 -6 12 -3 12 3 0 1 12 -5 28 -6 15 -12 34 -15 42 -8 35 -65 182 -93 243
-16 37 -27 67 -23 67 4 0 3 4 -3 8 -13 9 -81 145 -77 155 1 4 -1 7 -6 7 -4 0
-13 15 -21 33 -8 17 -17 34 -21 37 -3 3 -21 32 -40 65 -39 70 -158 245 -205
302 -5 7 -14 18 -20 25 -109 142 -284 323 -430 443 -33 28 -62 52 -65 55 -3 3
-21 17 -40 30 -19 13 -37 27 -40 30 -3 4 -54 39 -115 78 -60 40 -116 77 -122
82 -7 6 -23 15 -35 20 -13 6 -39 20 -58 31 -45 27 -265 139 -274 139 -3 0 -28
9 -54 21 -75 33 -188 77 -217 83 -5 2 -30 9 -55 16 -25 7 -49 15 -55 16 -5 1
-44 11 -85 22 -41 11 -93 23 -115 27 -22 5 -42 9 -45 10 -3 1 -30 5 -60 9 -30
5 -64 10 -75 12 -11 2 -40 7 -65 10 -25 3 -61 7 -80 10 -19 2 -99 6 -177 8
-78 3 -146 7 -151 10 -5 3 -11 3 -14 1z m312 -378 c14 -3 52 -9 85 -13 75 -9
83 -10 120 -17 17 -4 59 -12 95 -18 36 -7 69 -16 75 -21 5 -4 19 -8 31 -8 12
0 41 -7 65 -16 24 -8 51 -17 60 -19 42 -9 177 -60 264 -100 124 -56 156 -73
253 -130 123 -72 129 -75 167 -100 43 -28 170 -122 186 -137 8 -7 32 -26 54
-43 43 -32 295 -278 295 -288 0 -3 12 -19 26 -34 23 -24 99 -124 157 -203 52
-73 155 -250 207 -355 61 -123 130 -290 130 -313 0 -7 4 -20 10 -30 10 -17 37
-108 54 -177 31 -135 56 -264 62 -330 2 -22 6 -74 10 -115 10 -110 5 -505 -6
-505 -1 0 -3 -20 -5 -45 -2 -25 -6 -56 -8 -70 -3 -14 -8 -45 -12 -70 -8 -54
-43 -209 -52 -230 -3 -8 -5 -19 -4 -23 1 -8 -41 -141 -59 -182 -4 -11 -14 -36
-21 -55 -6 -19 -23 -60 -37 -90 -13 -30 -31 -73 -40 -95 -8 -22 -20 -47 -27
-55 -6 -8 -23 -37 -37 -65 -42 -82 -62 -118 -76 -133 -7 -8 -19 -29 -27 -48
-8 -19 -19 -34 -24 -34 -6 0 -11 -4 -11 -10 0 -8 -73 -118 -107 -160 -71 -90
-129 -157 -188 -218 -38 -40 -71 -77 -73 -82 -2 -6 -7 -10 -12 -10 -4 0 -28
-19 -53 -42 -91 -87 -182 -159 -307 -241 -47 -32 -89 -60 -95 -64 -22 -17
-117 -67 -235 -124 -69 -34 -133 -65 -143 -70 -79 -42 -446 -143 -597 -165
-25 -3 -56 -8 -70 -10 -66 -10 -175 -18 -267 -18 -57 -1 -103 -5 -103 -9 0 -5
-4 -6 -9 -3 -5 3 -62 8 -127 11 -66 3 -132 8 -149 10 -16 2 -57 7 -90 10 -33
4 -69 9 -80 11 -79 17 -111 22 -117 18 -5 -3 -8 0 -8 6 0 6 -6 10 -12 8 -13
-2 -111 19 -138 30 -8 3 -22 7 -30 8 -17 2 -183 60 -215 74 -11 5 -53 23 -94
40 -325 134 -661 374 -919 656 -90 99 -94 103 -143 169 -24 33 -51 68 -60 78
-9 10 -25 33 -35 52 -10 19 -22 35 -26 35 -5 0 -8 4 -8 9 0 5 -17 36 -39 68
-104 157 -266 525 -296 676 -2 9 -6 21 -9 25 -3 5 -7 19 -10 33 -2 13 -13 69
-25 124 -18 90 -26 140 -36 215 -27 199 -21 640 8 688 5 7 3 12 -3 12 -6 0 -9
4 -5 9 3 6 8 29 11 53 7 55 51 264 64 303 6 17 10 33 10 37 1 4 8 27 16 50 9
24 17 50 19 58 15 67 136 337 199 445 20 33 39 67 42 75 8 17 125 192 134 200
3 3 23 29 44 57 55 77 88 114 221 250 66 68 126 123 134 123 8 0 12 3 8 6 -3
4 40 42 96 85 56 44 110 86 120 94 9 8 17 13 17 10 0 -3 28 15 62 40 34 25 65
45 69 45 5 0 27 13 51 29 125 85 587 283 588 253 0 -4 4 -2 8 3 6 10 74 31
132 41 14 3 41 9 60 14 19 5 55 12 79 15 23 3 46 7 50 9 7 5 83 13 191 22 41
3 76 7 78 9 5 5 434 -3 462 -8z"/>
<path d="M4497 11364 c-4 -4 -55 -8 -114 -10 -60 -1 -121 -5 -138 -8 -16 -4
-50 -9 -75 -12 -25 -3 -52 -7 -60 -9 -8 -2 -31 -7 -50 -10 -19 -3 -71 -15
-115 -26 -44 -12 -87 -22 -95 -24 -20 -5 -143 -49 -209 -75 -80 -31 -308 -145
-321 -161 -3 -3 -12 -9 -20 -13 -63 -30 -279 -186 -288 -208 -2 -4 -8 -8 -14
-8 -12 0 -240 -227 -276 -275 -12 -17 -49 -66 -82 -110 -33 -44 -63 -84 -67
-90 -19 -23 -84 -136 -125 -215 -95 -182 -198 -455 -202 -532 0 -10 -3 -18 -6
-18 -4 0 -7 -6 -7 -12 0 -7 -3 -26 -7 -43 -6 -29 -23 -124 -31 -175 -19 -108
-24 -383 -11 -524 7 -76 38 -265 51 -316 4 -14 8 -32 10 -40 1 -8 4 -22 7 -30
41 -127 59 -187 58 -197 0 -7 5 -13 12 -13 6 0 9 -3 6 -6 -11 -11 110 -269
177 -379 14 -22 28 -47 32 -55 3 -8 9 -17 13 -20 3 -3 16 -22 29 -43 13 -21
30 -44 38 -52 8 -8 12 -15 8 -15 -3 0 4 -10 15 -22 11 -13 41 -50 67 -83 46
-59 224 -241 293 -300 81 -69 239 -180 340 -238 47 -27 248 -127 256 -127 2 0
23 -8 47 -19 47 -21 109 -45 117 -46 3 -1 28 -8 55 -17 51 -17 203 -57 240
-63 11 -2 31 -6 45 -9 27 -6 90 -14 185 -24 130 -14 476 -6 571 12 12 3 37 7
55 10 37 6 72 13 107 21 12 3 30 7 40 9 72 16 237 69 287 91 17 7 55 23 85 35
87 34 298 147 383 206 43 30 82 54 87 54 5 0 10 3 12 8 2 4 23 23 48 42 100
77 276 247 345 332 27 35 56 69 63 77 7 7 46 63 86 125 159 240 271 494 337
764 21 85 23 95 33 167 4 22 8 51 11 65 23 125 23 488 1 610 -3 14 -7 43 -10
65 -10 93 -60 287 -96 380 -6 17 -11 31 -11 32 4 20 -127 303 -178 388 -17 28
-34 57 -38 65 -4 8 -27 44 -52 80 -24 36 -54 79 -65 95 -12 17 -23 32 -26 35
-3 3 -25 30 -50 60 -25 30 -57 68 -72 83 -16 16 -28 33 -28 39 0 6 -3 8 -7 5
-3 -4 -15 5 -25 20 -10 16 -18 25 -18 21 0 -3 -17 11 -37 32 -32 31 -90 81
-206 176 -9 8 -21 14 -25 14 -4 1 -23 14 -42 30 -19 17 -40 30 -47 30 -7 0
-13 5 -13 10 0 6 -6 10 -13 10 -8 0 -22 9 -32 20 -10 11 -20 18 -23 15 -3 -2
-17 4 -31 14 -23 16 -148 83 -161 86 -3 1 -32 14 -65 29 -33 15 -89 39 -125
52 -36 14 -74 28 -85 33 -21 9 -119 38 -158 48 -12 2 -38 8 -57 13 -19 5 -46
11 -60 14 -77 18 -225 37 -332 41 -42 2 -80 5 -85 8 -5 3 -15 2 -23 -3 -8 -5
-19 -5 -26 0 -6 6 -14 7 -17 4z m263 -377 c14 -3 49 -8 79 -12 30 -4 63 -9 75
-12 12 -3 32 -7 46 -10 14 -3 57 -14 95 -25 39 -11 77 -22 85 -23 8 -2 15 -4
15 -5 0 -1 7 -3 15 -5 25 -5 212 -87 270 -118 66 -36 243 -151 264 -172 8 -8
17 -15 20 -15 20 0 265 -243 343 -340 73 -91 163 -222 163 -237 0 -6 4 -13 8
-15 15 -6 151 -298 157 -338 0 -3 9 -32 19 -65 58 -197 77 -332 78 -565 0
-146 -5 -224 -27 -368 -7 -49 -11 -65 -30 -137 -9 -33 -18 -68 -20 -78 -7 -34
-58 -173 -76 -209 -11 -21 -19 -44 -19 -52 0 -8 -3 -16 -7 -18 -5 -1 -19 -25
-33 -53 -13 -27 -29 -53 -35 -57 -5 -4 -6 -8 -2 -8 11 0 -142 -223 -195 -285
-114 -132 -367 -365 -396 -365 -6 0 -12 -4 -14 -8 -4 -9 -80 -61 -120 -81 -16
-8 -28 -18 -28 -23 0 -4 -9 -8 -19 -8 -11 0 -21 -4 -23 -8 -7 -19 -324 -152
-373 -157 -11 -1 -40 -7 -65 -14 -25 -7 -54 -15 -65 -17 -11 -2 -33 -7 -50
-10 -16 -4 -43 -9 -60 -10 -16 -2 -50 -6 -75 -9 -25 -3 -73 -7 -108 -9 -34 -2
-65 -6 -68 -9 -4 -4 -11 -4 -16 -1 -5 3 -66 7 -136 9 -139 3 -199 10 -347 39
-140 27 -363 107 -472 168 -86 48 -110 62 -162 95 -31 20 -58 38 -61 42 -3 3
-24 19 -47 35 -24 16 -43 33 -43 37 0 5 -7 9 -15 9 -39 0 -435 435 -435 478 0
6 -4 12 -8 14 -8 3 -72 104 -72 114 0 3 -9 18 -19 32 -10 15 -20 32 -21 37 -2
6 -16 39 -32 73 -15 35 -28 65 -28 67 0 2 -5 16 -12 32 -6 15 -12 30 -13 33 0
3 -8 28 -17 55 -15 48 -30 98 -34 120 -1 6 -3 13 -4 18 -3 9 -4 15 -13 57 -4
19 -10 46 -13 60 -29 136 -35 532 -9 660 3 14 8 41 11 60 14 93 70 296 103
370 8 19 15 37 16 40 1 3 9 21 17 40 9 19 16 39 16 44 0 5 4 12 9 15 4 3 16
22 26 41 87 172 200 324 362 485 104 104 203 191 214 189 3 -1 12 7 19 17 7
11 20 19 28 19 8 0 14 5 14 10 0 6 16 18 35 27 19 9 35 20 35 25 0 4 4 8 10 8
5 0 34 16 65 35 30 20 55 33 55 29 0 -4 8 0 18 8 42 36 342 150 431 164 18 3
43 8 55 10 70 16 113 23 181 30 33 4 61 8 63 9 5 5 393 -3 422 -8z"/>
<path d="M13818 13515 c-1 -1 -46 -6 -98 -9 -52 -4 -109 -9 -126 -12 -51 -8
-108 -15 -124 -15 -8 -1 -40 -5 -70 -10 -30 -5 -73 -11 -95 -14 -22 -4 -48 -8
-57 -11 -10 -3 -30 -7 -45 -10 -209 -37 -619 -161 -815 -247 -18 -8 -70 -31
-115 -51 -45 -20 -87 -36 -93 -36 -5 0 -10 -4 -10 -10 0 -5 -9 -10 -19 -10
-11 0 -27 -7 -35 -16 -9 -8 -16 -13 -16 -10 0 7 -218 -108 -322 -169 -114 -68
-204 -125 -275 -177 -29 -21 -53 -35 -53 -31 0 4 -6 0 -12 -8 -7 -9 -58 -49
-113 -90 -55 -40 -102 -77 -105 -80 -3 -4 -25 -23 -50 -44 -156 -129 -393
-362 -501 -493 -28 -34 -114 -138 -122 -147 -85 -101 -349 -498 -391 -590 -8
-16 -30 -58 -50 -92 -19 -35 -32 -63 -28 -63 4 0 2 -4 -4 -8 -10 -7 -66 -118
-106 -212 -11 -25 -26 -61 -35 -80 -8 -19 -19 -44 -23 -55 -23 -57 -42 -102
-50 -117 -6 -10 -10 -23 -10 -30 0 -7 -7 -26 -15 -42 -9 -16 -13 -31 -10 -34
3 -3 1 -10 -4 -16 -8 -11 -74 -216 -87 -271 -4 -16 -9 -34 -12 -40 -4 -5 -7
-16 -7 -25 -1 -8 -12 -58 -24 -110 -13 -52 -25 -104 -27 -115 -2 -11 -6 -31
-9 -45 -3 -14 -8 -38 -10 -55 -3 -16 -7 -41 -9 -55 -3 -14 -8 -45 -11 -70 -4
-25 -8 -56 -10 -70 -15 -99 -25 -199 -30 -315 -2 -49 -5 -90 -6 -90 -6 0 -3
-358 3 -361 5 -3 4 -13 -2 -23 -5 -10 -7 -21 -4 -24 3 -3 7 -36 9 -74 4 -80
14 -197 20 -233 2 -14 7 -50 10 -80 6 -56 13 -105 21 -144 2 -11 6 -34 9 -51
13 -80 17 -98 54 -255 39 -172 148 -514 187 -589 7 -13 11 -28 8 -33 -3 -4 0
-8 5 -8 6 0 11 -6 11 -14 0 -23 146 -331 225 -476 58 -105 149 -255 157 -258
5 -2 8 -7 8 -12 0 -25 241 -358 345 -477 5 -6 30 -35 55 -64 61 -72 311 -322
385 -386 60 -51 136 -115 171 -143 11 -8 57 -43 104 -78 47 -34 93 -69 103
-77 9 -8 19 -15 22 -15 3 0 26 -15 52 -34 56 -39 233 -148 318 -196 70 -39
391 -200 399 -200 3 0 35 -13 71 -30 36 -16 72 -30 80 -30 8 0 15 -5 15 -10 0
-6 3 -9 8 -8 7 1 15 -1 82 -27 123 -47 321 -111 333 -107 4 1 7 -2 7 -6 0 -4
8 -8 18 -9 9 0 26 -3 37 -6 113 -31 235 -60 255 -62 14 -2 25 -4 25 -5 0 -2 9
-4 20 -5 30 -5 95 -16 119 -21 38 -9 60 -12 115 -18 29 -4 56 -8 60 -10 3 -2
44 -7 91 -11 47 -4 108 -9 135 -12 28 -2 87 -5 132 -7 45 -1 85 -5 89 -9 4 -3
14 -2 23 2 9 5 18 10 21 12 3 1 15 -3 28 -10 15 -8 22 -8 22 -1 0 8 6 8 20 0
14 -8 20 -8 20 0 0 7 6 8 19 1 10 -6 21 -8 23 -5 3 2 65 6 139 9 122 4 178 8
294 20 127 13 162 17 175 20 23 6 112 19 138 19 12 1 22 4 22 9 0 4 3 6 8 5 6
-1 71 8 122 17 28 5 74 17 185 47 61 16 119 32 130 34 29 5 189 58 270 89 39
14 70 25 70 25 0 -1 11 3 25 8 14 5 28 9 31 8 3 0 13 5 21 12 9 7 24 14 34 16
11 2 55 21 99 42 44 21 82 38 85 39 12 2 276 138 300 154 14 9 36 22 50 29 31
15 60 33 78 49 7 7 17 13 22 13 11 0 102 60 111 73 3 5 9 8 13 7 23 -4 417
297 560 430 80 72 267 261 319 320 86 98 92 104 137 160 25 30 50 59 57 63 7
4 13 12 13 16 0 5 36 57 80 116 63 84 77 109 67 119 -6 7 -39 32 -72 56 -33
24 -90 68 -127 97 -37 29 -71 53 -75 53 -4 0 -22 -22 -40 -48 -18 -26 -39 -56
-48 -67 -129 -167 -167 -213 -217 -269 -20 -23 -47 -52 -58 -66 -64 -75 -248
-254 -355 -345 -38 -33 -72 -62 -75 -65 -7 -8 -139 -110 -175 -135 -15 -11
-48 -35 -74 -54 -74 -56 -323 -211 -338 -211 -7 0 -13 -4 -13 -8 0 -4 -46 -32
-102 -61 -57 -29 -110 -56 -118 -61 -101 -56 -493 -214 -504 -203 -3 4 -6 1
-6 -6 0 -7 -3 -10 -7 -8 -5 3 -19 0 -33 -6 -14 -5 -32 -11 -40 -13 -8 -2 -44
-12 -79 -24 -35 -11 -67 -17 -72 -14 -5 3 -9 1 -9 -4 0 -6 -15 -13 -32 -16
-18 -3 -42 -8 -53 -10 -11 -3 -60 -14 -110 -25 -49 -11 -106 -22 -125 -25 -19
-3 -48 -8 -65 -12 -16 -3 -43 -7 -60 -9 -40 -4 -124 -15 -155 -21 -118 -19
-628 -26 -800 -10 -52 4 -110 9 -127 10 -18 0 -33 4 -33 9 0 4 -4 6 -8 3 -8
-4 -96 6 -177 20 -16 3 -45 7 -64 10 -18 2 -36 6 -40 8 -3 3 -25 7 -47 10 -34
5 -134 29 -256 61 -10 3 -26 7 -35 9 -24 6 -184 56 -203 63 -8 4 -17 7 -20 8
-74 22 -99 32 -120 44 -13 9 -27 15 -30 15 -25 -6 -519 226 -528 248 -2 5 -10
8 -18 8 -8 0 -20 5 -27 10 -7 6 -75 49 -152 97 -77 48 -145 92 -152 97 -33 29
-43 36 -51 36 -5 0 -19 11 -32 25 -13 14 -29 25 -36 25 -7 0 -14 4 -16 8 -1 4
-31 29 -65 55 -34 26 -68 53 -75 60 -7 6 -42 37 -78 67 -64 53 -335 322 -375
370 -11 14 -52 63 -91 110 -39 47 -99 123 -132 170 -34 47 -65 90 -69 95 -13
15 -107 158 -113 170 -3 5 -31 53 -62 107 -32 53 -58 101 -58 106 0 6 -3 12
-7 14 -19 8 -204 407 -244 523 -7 22 -16 45 -20 50 -3 6 -10 24 -14 40 -10 35
-10 35 -18 55 -11 27 -76 245 -81 270 -3 14 -17 76 -31 139 -15 63 -28 126
-30 140 -5 29 -23 142 -30 181 -3 14 -7 50 -10 81 -3 31 -7 66 -10 78 -22 118
-23 621 0 831 10 97 20 174 29 230 4 19 8 49 11 65 6 40 13 77 30 151 8 34 16
73 19 85 12 65 87 330 106 374 4 11 26 70 48 130 22 61 51 135 64 164 43 102
200 416 209 419 5 2 7 7 4 12 -3 4 2 13 10 20 8 7 15 16 15 20 0 13 109 190
149 242 12 14 21 29 21 33 0 6 204 280 224 300 6 7 31 36 56 65 62 74 334 347
394 395 27 22 56 47 65 56 27 27 221 172 324 243 143 97 487 294 487 278 0 -4
4 -2 8 3 4 6 27 20 52 32 53 25 202 92 220 98 14 5 47 18 65 25 54 23 261 98
290 105 11 3 76 21 145 40 69 20 135 38 148 40 12 3 34 8 50 11 15 3 38 7 52
9 14 2 25 4 25 5 0 2 25 7 75 15 24 4 47 8 50 10 3 1 32 6 65 10 32 3 62 8 65
10 3 1 41 6 85 10 44 4 96 9 115 11 36 3 309 16 345 15 174 -2 441 -19 555
-36 14 -2 44 -7 67 -10 68 -10 95 -14 148 -25 28 -6 66 -13 85 -16 19 -3 44
-8 55 -11 11 -4 25 -8 30 -9 6 -1 21 -5 35 -7 51 -11 155 -39 170 -45 8 -3 20
-7 25 -7 6 -1 17 -4 25 -7 8 -4 70 -25 138 -47 199 -67 485 -193 655 -290 20
-11 53 -30 72 -41 19 -11 51 -29 71 -40 54 -31 237 -152 252 -167 7 -7 17 -13
21 -13 4 0 16 -8 27 -18 10 -9 32 -26 49 -36 34 -22 47 -32 80 -63 13 -13 28
-23 34 -23 5 0 11 -3 13 -7 2 -5 32 -33 68 -63 100 -84 114 -97 234 -215 141
-140 233 -242 326 -360 17 -22 36 -47 43 -55 7 -8 41 -54 76 -102 57 -80 83
-102 93 -80 2 4 63 46 135 92 117 75 156 110 123 110 -5 0 -10 7 -10 15 0 8
-4 15 -10 15 -5 0 -10 7 -10 15 0 8 -4 15 -8 15 -4 0 -15 13 -25 29 -18 30
-197 259 -238 302 -13 15 -42 48 -64 73 -59 70 -242 252 -326 326 -40 36 -80
72 -89 80 -9 9 -33 29 -55 45 -22 17 -47 37 -55 45 -39 35 -71 60 -79 60 -5 0
-11 3 -13 8 -4 9 -119 93 -223 162 -44 29 -92 61 -107 71 -26 18 -61 39 -148
87 -25 13 -52 30 -60 37 -16 13 -328 168 -415 206 -68 29 -277 111 -292 113
-7 1 -16 5 -19 9 -4 4 -13 7 -20 7 -7 0 -25 5 -41 12 -15 6 -32 12 -38 13 -5
2 -30 8 -55 16 -25 7 -49 13 -55 14 -5 2 -32 10 -58 19 -27 9 -65 19 -85 22
-21 3 -40 8 -44 10 -5 4 -54 14 -133 30 -11 2 -42 8 -70 14 -27 6 -63 13 -80
15 -16 3 -46 7 -65 10 -73 12 -133 19 -235 30 -38 4 -86 9 -105 12 -40 5 -626
13 -632 8z"/>
<path d="M13828 12795 c-2 -2 -42 -6 -89 -9 -47 -4 -96 -8 -110 -10 -13 -3
-51 -8 -84 -12 -33 -4 -62 -8 -65 -9 -3 0 -27 -4 -53 -9 -116 -18 -311 -65
-432 -102 -60 -19 -121 -37 -135 -40 -13 -3 -30 -10 -37 -16 -7 -6 -13 -8 -13
-5 0 9 -231 -88 -365 -153 -104 -50 -166 -84 -354 -192 -18 -10 -40 -26 -48
-34 -8 -7 -21 -14 -29 -14 -8 0 -14 -4 -14 -10 0 -5 -4 -10 -9 -10 -9 0 -106
-67 -188 -129 -15 -12 -41 -31 -58 -44 -196 -149 -428 -376 -626 -615 -10 -13
-19 -26 -19 -28 0 -3 -9 -15 -21 -27 -11 -12 -35 -42 -52 -67 -17 -25 -35 -47
-39 -48 -4 -2 -6 -8 -2 -13 3 -5 1 -9 -4 -9 -5 0 -30 -35 -57 -77 -27 -43 -51
-80 -54 -83 -7 -6 -15 -19 -90 -150 -76 -134 -221 -432 -221 -456 0 -3 -6 -20
-14 -37 -29 -65 -85 -235 -79 -241 4 -3 1 -6 -5 -6 -7 0 -11 -3 -10 -7 2 -10
-13 -75 -20 -88 -4 -5 -7 -14 -8 -20 -1 -5 -7 -30 -13 -55 -12 -45 -17 -69
-25 -112 -5 -22 -21 -100 -30 -145 -2 -11 -8 -43 -12 -70 -3 -26 -8 -57 -11
-68 -2 -11 -6 -42 -8 -70 -2 -27 -7 -75 -11 -105 -3 -30 -7 -73 -8 -96 -1 -22
-6 -45 -10 -52 -4 -7 -3 -12 2 -12 5 0 6 -16 3 -37 -9 -48 -7 -361 2 -369 4
-4 2 -13 -4 -21 -6 -7 -8 -13 -3 -13 5 0 9 -21 10 -48 1 -82 7 -157 12 -166 3
-6 6 -26 7 -45 2 -35 22 -174 32 -216 2 -11 6 -31 8 -45 2 -14 11 -56 20 -95
9 -38 19 -81 22 -95 33 -163 162 -515 265 -723 32 -65 58 -122 58 -127 0 -6 4
-10 9 -10 5 0 12 -9 16 -20 12 -38 239 -398 265 -420 3 -3 23 -29 44 -58 42
-57 42 -57 143 -177 77 -92 313 -329 392 -395 30 -25 59 -49 65 -55 35 -31
115 -95 120 -95 5 0 31 -20 60 -45 6 -6 58 -42 116 -81 203 -137 429 -260 635
-345 66 -28 129 -54 140 -59 18 -7 129 -46 165 -57 8 -2 15 -3 16 -1 0 2 8 -3
17 -11 10 -7 17 -11 17 -7 0 3 16 0 35 -8 19 -8 35 -13 35 -11 0 3 12 0 28 -6
15 -6 34 -12 42 -14 8 -2 33 -8 55 -13 22 -6 52 -14 68 -17 15 -3 37 -7 50
-10 81 -17 126 -26 157 -30 31 -4 49 -7 125 -21 11 -1 47 -6 80 -9 33 -3 85
-8 115 -11 30 -3 90 -6 132 -7 43 -1 78 -6 78 -10 0 -5 6 -5 12 -1 13 9 86 9
94 1 3 -3 21 -1 40 3 19 5 37 4 40 -1 3 -5 10 -7 15 -3 5 3 51 7 102 10 158 7
317 21 417 38 14 3 42 7 64 10 21 4 41 8 45 10 3 2 28 7 55 10 27 4 52 9 56
11 4 2 20 7 36 10 16 3 40 8 54 11 14 3 48 12 76 20 28 8 60 16 70 18 11 3 31
9 47 15 15 6 38 13 50 16 33 7 179 59 204 73 12 7 28 12 35 12 7 1 31 9 53 20
22 11 46 19 53 20 6 0 12 5 12 12 0 6 3 9 6 6 5 -6 229 97 244 112 3 3 23 14
45 25 47 23 328 194 335 204 3 3 32 24 65 46 33 22 67 48 76 58 9 9 19 17 23
17 8 0 156 121 220 179 77 70 272 268 321 325 28 32 55 63 60 69 32 38 128
162 170 221 48 68 48 69 29 85 -38 30 -79 61 -154 116 -41 30 -79 58 -85 63
-28 22 -34 20 -62 -23 -15 -25 -31 -45 -35 -45 -5 0 -8 -7 -8 -15 0 -8 -4 -15
-8 -15 -4 0 -15 -12 -24 -27 -10 -16 -27 -40 -40 -54 -13 -15 -32 -38 -43 -52
-71 -89 -239 -265 -346 -363 -105 -97 -376 -304 -397 -304 -6 0 -12 -3 -14 -7
-3 -8 -74 -57 -113 -79 -11 -6 -44 -25 -73 -42 -29 -18 -57 -32 -62 -32 -4 0
-10 -3 -12 -7 -1 -5 -32 -22 -68 -40 -102 -50 -260 -123 -266 -123 -3 0 -20
-6 -37 -14 -50 -22 -252 -92 -290 -100 -7 -2 -19 -5 -27 -9 -23 -8 -131 -36
-165 -42 -16 -2 -40 -7 -52 -10 -13 -3 -33 -7 -45 -10 -30 -7 -62 -12 -118
-20 -24 -4 -47 -8 -50 -10 -3 -2 -37 -6 -75 -10 -39 -3 -83 -8 -100 -10 -25
-4 -298 -17 -330 -16 -102 2 -298 12 -321 15 -18 3 -63 8 -100 11 -38 4 -72 9
-75 10 -3 2 -28 7 -55 11 -27 3 -58 8 -69 10 -41 9 -90 17 -102 17 -7 0 -13 4
-13 9 0 5 -4 7 -8 4 -7 -4 -74 11 -167 38 -5 1 -30 8 -55 15 -135 37 -473 170
-540 212 -8 5 -22 12 -30 15 -8 3 -22 9 -30 14 -8 5 -35 19 -60 31 -101 51
-351 207 -435 273 -212 165 -231 181 -375 326 -103 104 -161 167 -210 232 -14
18 -33 40 -42 50 -10 10 -18 20 -18 23 0 4 -88 126 -110 152 -5 7 -10 14 -10
17 0 2 -18 31 -39 64 -22 32 -49 75 -60 96 -12 20 -31 53 -42 74 -65 111 -179
349 -179 370 0 7 -5 12 -12 12 -6 0 -9 3 -6 6 4 3 -3 26 -14 52 -20 45 -97
263 -103 292 -2 8 -10 40 -19 71 -9 31 -19 66 -21 78 -3 11 -8 31 -11 44 -8
32 -24 107 -30 146 -3 18 -8 43 -10 55 -2 11 -7 41 -9 66 -3 25 -8 52 -10 60
-14 52 -27 251 -28 430 -1 142 10 377 18 390 2 3 6 32 10 65 7 76 13 118 20
153 7 32 11 53 19 107 4 22 9 47 12 55 3 8 8 26 11 40 2 14 10 45 18 70 7 25
25 86 40 135 53 184 113 330 221 550 36 72 69 137 74 145 6 8 31 51 57 95 27
44 84 131 128 194 44 62 87 123 95 135 16 23 28 37 135 160 78 90 182 195 269
271 31 28 69 61 84 74 108 98 430 313 577 386 22 11 42 23 45 26 4 5 32 18 50
24 3 1 39 17 80 37 170 80 360 154 475 184 6 2 51 14 100 28 50 14 104 28 120
31 89 19 184 37 210 40 17 2 39 6 51 8 11 3 47 8 80 12 32 3 79 8 104 11 104
11 350 18 358 10 2 -2 17 0 33 4 16 5 29 6 29 2 0 -4 30 -8 68 -8 37 -1 99 -5
137 -8 39 -4 91 -9 117 -11 26 -2 59 -7 75 -10 15 -4 44 -8 63 -11 29 -4 88
-16 195 -39 6 -1 28 -5 50 -10 22 -4 44 -10 50 -13 5 -3 16 -7 25 -8 24 -3 53
-11 83 -23 15 -6 38 -13 50 -15 22 -4 205 -68 242 -85 11 -5 49 -22 85 -37
184 -80 452 -229 615 -343 28 -19 64 -44 80 -55 17 -12 32 -23 35 -26 3 -3 25
-21 50 -40 25 -19 50 -39 56 -45 6 -5 36 -30 65 -55 30 -24 113 -103 184 -176
117 -118 162 -167 224 -244 23 -27 21 -25 71 -90 19 -25 38 -46 42 -48 5 -2 8
-9 8 -15 0 -7 13 -27 28 -45 26 -30 30 -31 55 -20 15 7 27 16 27 21 0 4 4 7 9
7 5 0 45 25 90 55 45 30 84 55 87 55 3 0 12 6 20 14 7 8 19 16 25 18 14 5 -16
68 -31 68 -6 0 -10 6 -10 13 0 10 -14 29 -60 85 -6 6 -9 12 -6 12 3 0 -7 13
-22 29 -15 16 -48 56 -74 88 -117 148 -338 370 -496 499 -13 10 -32 26 -42 35
-10 8 -31 24 -45 35 -15 10 -43 32 -63 48 -78 61 -323 218 -447 286 -114 63
-309 160 -321 160 -2 0 -26 10 -52 21 -60 27 -99 43 -137 57 -16 5 -39 14 -50
18 -11 4 -23 6 -27 6 -5 -1 -8 3 -8 8 0 5 -3 9 -7 8 -11 -4 -106 24 -119 34
-7 5 -16 8 -20 7 -5 -1 -12 0 -16 1 -5 1 -12 4 -18 5 -5 1 -11 3 -12 4 -2 2
-14 5 -28 8 -31 6 -41 8 -60 16 -42 15 -208 50 -247 51 -13 1 -23 4 -23 7 0 3
-6 6 -12 6 -7 0 -33 3 -58 7 -56 9 -87 13 -170 21 -36 3 -76 9 -90 12 -27 5
-587 13 -592 8z"/>
<path d="M14028 12085 c-2 -3 -52 -7 -109 -10 -111 -5 -189 -11 -254 -21 -22
-4 -49 -8 -60 -9 -11 -1 -36 -5 -55 -9 -19 -4 -48 -9 -65 -11 -16 -2 -30 -4
-30 -5 0 -1 -10 -3 -22 -6 -13 -2 -33 -6 -45 -8 -13 -3 -23 -5 -23 -6 0 -1 -9
-3 -21 -5 -48 -10 -136 -36 -244 -72 -63 -22 -122 -41 -130 -44 -8 -2 -17 -6
-20 -10 -3 -3 -27 -13 -55 -23 -60 -22 -287 -134 -344 -170 -22 -14 -43 -26
-47 -26 -7 0 -268 -177 -303 -205 -186 -152 -318 -277 -437 -415 -21 -25 -42
-47 -45 -50 -12 -10 -191 -255 -197 -270 -3 -8 -14 -24 -24 -34 -10 -11 -18
-25 -18 -32 0 -7 -4 -14 -8 -16 -11 -4 -54 -80 -124 -218 -29 -58 -55 -107
-58 -110 -3 -3 -6 -12 -8 -20 -2 -8 -16 -42 -31 -75 -15 -33 -38 -89 -50 -125
-13 -36 -26 -72 -29 -80 -3 -8 -6 -17 -7 -20 -1 -3 -11 -36 -22 -75 -12 -38
-31 -108 -42 -155 -11 -47 -23 -98 -27 -115 -4 -16 -8 -34 -8 -40 -1 -5 -5
-35 -10 -65 -5 -30 -10 -67 -12 -82 -2 -16 -6 -43 -9 -60 -23 -166 -23 -588 0
-728 2 -14 7 -47 10 -75 4 -27 9 -61 11 -75 2 -14 6 -37 8 -52 4 -33 46 -218
53 -238 3 -8 8 -24 10 -35 2 -11 6 -27 10 -35 3 -8 7 -17 7 -20 3 -16 30 -99
41 -125 7 -16 16 -41 20 -55 3 -14 10 -34 15 -45 5 -11 27 -61 49 -111 44
-101 123 -255 164 -321 15 -24 27 -44 27 -47 0 -6 83 -130 97 -144 7 -7 13
-18 13 -23 0 -8 6 -17 53 -71 9 -12 17 -24 17 -27 0 -3 10 -17 23 -31 12 -14
44 -52 72 -85 94 -114 254 -275 351 -355 103 -84 176 -139 269 -202 125 -85
300 -188 320 -188 7 0 15 -4 17 -8 3 -8 221 -112 234 -112 3 0 20 -6 37 -14
72 -31 312 -108 377 -120 14 -2 32 -7 40 -10 8 -3 29 -7 45 -10 17 -3 41 -7
55 -11 14 -3 41 -8 60 -11 19 -3 49 -7 65 -10 17 -2 50 -7 75 -10 25 -3 59 -7
75 -9 17 -2 113 -6 214 -10 102 -3 187 -7 190 -7 4 0 8 1 11 2 3 1 32 3 65 5
33 2 94 6 135 10 41 4 82 7 90 7 8 0 35 5 60 10 25 5 61 11 80 13 19 1 65 10
103 19 37 9 71 15 75 14 4 0 14 2 22 5 12 5 85 25 150 42 8 2 56 18 105 35 50
17 95 33 100 34 11 3 25 9 145 61 91 39 278 136 322 166 14 11 28 19 31 19 14
0 225 144 275 187 20 18 43 33 50 33 6 0 12 3 12 8 0 4 23 25 51 47 106 83
348 332 436 450 13 17 36 48 53 69 37 48 74 106 69 110 -2 1 -26 18 -54 37
-27 19 -52 37 -55 40 -3 3 -45 32 -93 64 -86 57 -88 58 -102 38 -143 -205
-345 -421 -530 -568 -27 -22 -52 -42 -55 -45 -3 -3 -12 -9 -22 -15 -9 -5 -45
-31 -80 -56 -35 -25 -79 -54 -98 -65 -19 -10 -37 -22 -40 -25 -3 -4 -25 -17
-50 -29 -25 -12 -47 -26 -50 -29 -5 -7 -284 -141 -293 -141 -3 0 -18 -5 -34
-12 -15 -6 -30 -12 -33 -13 -3 -1 -12 -5 -20 -8 -22 -10 -210 -67 -234 -71
-12 -2 -41 -9 -66 -16 -25 -7 -56 -14 -70 -16 -14 -3 -50 -9 -80 -14 -30 -5
-69 -12 -85 -14 -58 -10 -171 -19 -252 -20 -46 0 -83 -5 -83 -9 0 -4 -8 -3
-18 2 -10 6 -24 6 -32 1 -8 -5 -18 -6 -23 -3 -6 3 -55 7 -111 8 -91 3 -166 9
-236 20 -98 15 -117 18 -136 20 -11 1 -24 4 -30 7 -5 4 -28 9 -49 12 -41 5
-119 23 -145 34 -8 3 -25 7 -38 8 -13 2 -29 7 -35 13 -7 5 -35 15 -62 22 -28
6 -55 16 -61 21 -7 5 -21 11 -32 13 -48 9 -382 170 -390 188 -2 4 -8 7 -13 7
-12 0 -93 52 -97 63 -2 4 -8 7 -13 7 -10 0 -130 84 -199 139 -24 20 -56 45
-70 56 -39 30 -350 345 -350 354 0 5 -14 24 -30 42 -57 64 -218 314 -282 439
-36 69 -66 128 -67 132 -1 4 -10 28 -21 54 -11 25 -20 47 -20 49 0 2 -5 16
-12 32 -7 15 -12 33 -13 38 0 6 -6 20 -13 33 -7 12 -10 22 -6 22 3 0 2 6 -4
13 -6 6 -11 15 -11 20 0 9 -21 86 -29 107 -12 33 -23 79 -27 110 -2 14 -4 26
-5 28 -3 2 -3 5 -13 52 -15 72 -17 87 -33 209 -32 247 -19 615 30 851 9 40 13
77 10 81 -3 5 -1 9 3 9 5 0 10 8 11 18 6 53 79 292 114 372 11 25 24 54 28 65
43 106 139 284 209 390 25 39 48 75 50 80 2 6 7 12 10 15 3 3 33 41 66 85 32
44 73 96 89 115 63 73 294 297 351 340 33 25 68 53 79 62 31 28 214 148 225
148 6 0 11 4 11 9 0 5 8 11 18 15 9 3 37 17 62 32 88 50 274 142 300 148 3 1
37 14 76 29 39 15 102 37 140 48 110 33 221 61 295 73 19 3 43 7 54 10 26 5
93 14 180 23 84 9 477 8 555 -1 83 -9 175 -23 175 -26 0 -1 18 -4 40 -6 22 -3
99 -20 170 -39 162 -44 160 -43 160 -45 0 -1 7 -3 15 -5 8 -1 42 -13 75 -26
33 -13 63 -22 68 -21 4 1 7 -3 7 -9 0 -5 4 -8 9 -4 5 3 12 1 16 -5 3 -5 15
-10 26 -10 10 0 19 -4 19 -10 0 -5 6 -10 14 -10 20 0 257 -123 339 -176 37
-24 72 -44 76 -44 5 0 11 -3 13 -8 2 -4 32 -27 68 -52 36 -24 70 -48 76 -54 6
-6 26 -22 45 -36 62 -47 114 -93 219 -200 124 -125 147 -151 222 -250 103
-135 91 -124 118 -109 13 8 29 18 34 22 29 22 149 97 155 97 5 0 16 9 26 20
10 11 24 20 30 20 27 0 24 33 -8 75 -17 23 -41 56 -52 71 -28 39 -103 131
-145 179 -61 70 -253 258 -305 300 -28 22 -52 43 -55 46 -14 16 -210 159 -218
159 -6 0 -12 3 -14 8 -4 9 -65 52 -74 52 -3 0 -18 9 -32 19 -75 53 -366 199
-487 244 -38 14 -83 31 -100 37 -16 6 -30 10 -31 8 0 -2 -8 3 -17 11 -10 7
-17 11 -17 8 0 -4 -19 1 -42 9 -24 9 -50 17 -58 19 -8 1 -35 8 -60 15 -45 12
-61 16 -102 25 -13 2 -43 9 -68 14 -25 6 -58 13 -75 15 -16 3 -41 7 -55 10
-14 2 -52 8 -85 11 -33 4 -71 9 -85 11 -14 2 -85 6 -158 9 -73 2 -136 6 -140
9 -5 3 -14 1 -22 -4 -8 -5 -19 -5 -26 0 -6 6 -13 8 -16 5z"/>
<path d="M14007 11364 c-3 -4 -43 -8 -89 -10 -68 -3 -218 -22 -311 -40 -63
-12 -222 -56 -297 -82 -8 -3 -17 -6 -20 -7 -10 -3 -47 -18 -130 -53 -76 -32
-125 -56 -240 -119 -85 -45 -255 -160 -305 -205 -8 -7 -29 -24 -47 -38 -40
-32 -223 -212 -269 -265 -56 -66 -137 -176 -164 -222 -11 -18 -23 -33 -27 -33
-4 0 -8 -4 -8 -9 0 -5 -20 -44 -45 -85 -66 -113 -195 -395 -195 -429 0 -7 -3
-17 -7 -21 -4 -3 -8 -12 -9 -19 -1 -7 -11 -43 -22 -82 -18 -62 -30 -109 -37
-140 -2 -5 -5 -26 -9 -45 -3 -19 -8 -46 -11 -60 -6 -29 -11 -74 -21 -185 -15
-165 -6 -421 20 -565 4 -19 11 -62 17 -94 37 -208 175 -566 280 -724 16 -24
29 -45 29 -48 0 -5 94 -146 115 -173 148 -185 300 -340 421 -427 14 -10 32
-24 39 -31 17 -16 175 -123 181 -123 3 0 18 -9 33 -19 57 -41 301 -157 396
-189 17 -6 39 -13 50 -18 11 -4 25 -8 30 -10 6 -1 48 -14 95 -27 47 -14 99
-28 115 -31 17 -4 41 -9 55 -12 14 -3 41 -8 60 -10 19 -3 48 -9 63 -14 20 -7
26 -6 21 2 -4 7 -3 8 4 4 34 -21 429 -29 562 -12 64 8 74 9 155 20 22 3 69 13
105 21 36 9 74 18 85 21 12 2 48 13 80 25 33 11 69 22 81 25 25 5 207 81 283
119 99 49 254 147 370 233 98 74 303 265 366 343 50 62 145 191 145 197 0 4
-57 48 -126 97 -70 50 -133 96 -141 104 -7 7 -15 12 -17 10 -115 -154 -127
-169 -226 -271 -85 -88 -226 -207 -287 -243 -18 -11 -33 -23 -33 -27 0 -4 -5
-8 -11 -8 -6 0 -23 -9 -38 -19 -43 -31 -213 -121 -228 -121 -7 0 -13 -5 -13
-12 0 -6 -3 -9 -6 -6 -3 4 -33 -7 -67 -22 -50 -23 -132 -50 -157 -53 -3 0 -20
-6 -37 -14 -18 -7 -33 -11 -33 -8 0 3 -8 1 -17 -4 -10 -5 -36 -12 -57 -15 -21
-4 -48 -8 -60 -11 -73 -17 -154 -26 -256 -30 -47 -2 -86 -4 -87 -5 -4 -2 -52
-3 -55 0 -2 0 -46 3 -98 5 -52 2 -109 6 -125 10 -17 3 -50 8 -75 10 -45 5 -50
6 -105 19 -16 4 -50 12 -75 18 -25 5 -52 12 -60 15 -8 4 -19 7 -25 8 -54 12
-191 68 -296 120 -87 43 -273 160 -309 194 -9 9 -37 32 -61 51 -58 46 -246
235 -284 285 -16 22 -32 42 -35 45 -19 18 -70 90 -70 99 0 6 -3 11 -8 11 -4 0
-16 17 -27 37 -11 20 -25 41 -31 47 -9 10 -118 223 -120 236 -1 5 -17 48 -31
80 -3 8 -7 17 -7 20 -1 3 -5 11 -9 18 -5 6 -6 12 -3 12 3 0 0 17 -8 38 -8 20
-18 51 -22 67 -4 17 -8 32 -9 35 -2 8 -25 112 -30 140 -26 129 -36 418 -21
555 3 28 8 68 10 90 3 22 14 85 26 140 12 55 22 105 24 110 1 6 5 16 9 23 5 6
6 12 2 12 -3 0 1 16 9 35 9 20 15 38 15 40 -1 10 35 100 44 113 5 6 7 12 3 12
-7 0 122 252 133 260 4 3 18 24 31 48 13 23 27 42 32 42 4 0 8 7 8 15 0 7 6
18 13 22 6 4 32 35 57 68 89 120 315 331 450 420 25 17 47 33 48 38 2 4 10 7
18 7 8 0 14 5 14 12 0 6 3 8 7 5 3 -4 13 -1 22 7 39 35 307 157 380 172 13 3
31 9 40 13 20 11 144 38 251 56 86 15 106 16 285 19 200 4 353 -9 465 -39 27
-7 80 -17 82 -14 2 1 13 -3 26 -10 13 -7 32 -14 43 -16 112 -22 502 -215 585
-290 7 -5 24 -19 40 -30 135 -96 311 -276 413 -422 21 -31 45 -42 53 -25 2 4
63 47 136 95 l133 88 -23 32 c-12 18 -27 38 -33 44 -5 7 -32 42 -60 78 -58 77
-253 277 -310 320 -22 17 -44 35 -50 42 -5 6 -53 41 -105 77 -52 36 -100 69
-106 73 -11 9 -39 24 -155 88 -83 45 -279 135 -307 140 -9 2 -18 4 -19 5 -2 2
-6 3 -10 5 -10 2 -42 14 -72 26 -13 5 -26 7 -29 5 -2 -3 -14 0 -25 5 -11 6
-34 13 -51 16 -17 3 -36 9 -42 14 -6 5 -13 7 -15 4 -3 -2 -22 0 -44 6 -22 5
-56 12 -75 14 -19 3 -46 8 -60 10 -42 9 -151 18 -222 19 -38 1 -68 4 -68 7 0
3 -22 3 -50 -1 -27 -3 -53 -3 -58 2 -5 5 -11 5 -15 2z"/>
</g>
</svg>
