<svg width="17" height="17" viewBox="0 0 17 17" fill="none" xmlns="http://www.w3.org/2000/svg">
<path d="M10.0409 8.50857L0.625875 7.56007L0.625 1.56457C0.625115 1.40446 0.666132 1.24704 0.744161 1.10724C0.82219 0.967436 0.934643 0.849886 1.07085 0.765742C1.20706 0.681597 1.36251 0.633647 1.52245 0.626441C1.68239 0.619235 1.84153 0.653011 1.98475 0.724566L15.8553 7.65982C16.0111 7.73797 16.1421 7.85793 16.2336 8.00627C16.3252 8.15461 16.3737 8.3255 16.3737 8.49982C16.3737 8.67413 16.3252 8.84502 16.2336 8.99336C16.1421 9.1417 16.0111 9.26166 15.8553 9.33982L1.9865 16.2751C1.84328 16.3466 1.68414 16.3804 1.5242 16.3732C1.36426 16.366 1.20881 16.318 1.0726 16.2339C0.936393 16.1497 0.82394 16.0322 0.745911 15.8924C0.667882 15.7526 0.626865 15.5952 0.62675 15.4351V9.43957L10.0417 8.50857H10.0409Z" fill="white"/>
</svg>
