<svg width="48" height="48" viewBox="0 0 48 48" fill="none" xmlns="http://www.w3.org/2000/svg">
<path d="M11.9998 16L23.9998 22L35.9998 16L23.9998 10L11.9998 16ZM24.9778 6.23201L40.9638 14.384C41.9358 14.88 42.2858 16.004 41.7458 16.898C41.5575 17.2051 41.2874 17.4537 40.9658 17.616L24.9778 25.768C24.6745 25.921 24.3395 26.0007 23.9998 26.0007C23.6601 26.0007 23.3251 25.921 23.0218 25.768L7.03578 17.616C6.06378 17.12 5.71378 15.996 6.25378 15.102C6.44207 14.7949 6.71216 14.5463 7.03378 14.384L23.0218 6.23201C23.6298 5.92201 24.3698 5.92201 24.9778 6.23201ZM24.9778 33.764C24.6752 33.9195 24.3399 34.0006 23.9998 34.0006C23.6596 34.0006 23.3243 33.9195 23.0218 33.764L7.03578 25.47C6.06378 24.966 5.71378 23.822 6.25378 22.914C6.44084 22.6029 6.71095 22.3501 7.03378 22.184C7.26696 22.0627 7.52593 21.9994 7.78878 21.9994C8.05162 21.9994 8.3106 22.0627 8.54378 22.184L23.0238 29.694C23.6298 30.01 24.3698 30.01 24.9778 29.694L39.4558 22.184C39.6887 22.063 39.9473 21.9999 40.2098 21.9999C40.4722 21.9999 40.7309 22.063 40.9638 22.184C41.9358 22.688 42.2858 23.832 41.7458 24.74C41.5587 25.0511 41.2886 25.3039 40.9658 25.47L24.9778 33.764ZM24.9778 41.764C24.6752 41.9195 24.3399 42.0006 23.9998 42.0006C23.6596 42.0006 23.3243 41.9195 23.0218 41.764L7.03578 33.47C6.06378 32.966 5.71378 31.822 6.25378 30.914C6.44084 30.6029 6.71095 30.3501 7.03378 30.184C7.26696 30.0627 7.52593 29.9994 7.78878 29.9994C8.05162 29.9994 8.3106 30.0627 8.54378 30.184L23.0238 37.694C23.6298 38.01 24.3698 38.01 24.9778 37.694L39.4558 30.184C39.6887 30.063 39.9473 29.9999 40.2098 29.9999C40.4722 29.9999 40.7309 30.063 40.9638 30.184C41.9358 30.688 42.2858 31.832 41.7458 32.74C41.5587 33.0511 41.2886 33.3039 40.9658 33.47L24.9778 41.764Z" fill="#6B46C1"/>
</svg>
