<svg width="48" height="48" viewBox="0 0 48 48" fill="none" xmlns="http://www.w3.org/2000/svg">
<path fill-rule="evenodd" clip-rule="evenodd" d="M16 32H32C32.5304 32 33.0391 32.2107 33.4142 32.5858C33.7893 32.9609 34 33.4696 34 34C34 34.5304 33.7893 35.0391 33.4142 35.4142C33.0391 35.7893 32.5304 36 32 36H14C13.4696 36 12.9609 35.7893 12.5858 35.4142C12.2107 35.0391 12 34.5304 12 34V8H10C9.46957 8 8.96086 7.78929 8.58579 7.41421C8.21071 7.03914 8 6.53043 8 6C8 5.46957 8.21071 4.96086 8.58579 4.58579C8.96086 4.21071 9.46957 4 10 4H14C14.5304 4 15.0391 4.21071 15.4142 4.58579C15.7893 4.96086 16 5.46957 16 6V24H33.55L36 14V10.002C38.29 10.002 40 11.79 40 14C40 14.292 39.966 14.582 39.9 14.868L37.598 24.868C37.178 26.698 35.494 28 33.55 28H16.146L16 27.998V32ZM15 44C14.2044 44 13.4413 43.6839 12.8787 43.1213C12.3161 42.5587 12 41.7956 12 41C12 40.2044 12.3161 39.4413 12.8787 38.8787C13.4413 38.3161 14.2044 38 15 38C15.7956 38 16.5587 38.3161 17.1213 38.8787C17.6839 39.4413 18 40.2044 18 41C18 41.7956 17.6839 42.5587 17.1213 43.1213C16.5587 43.6839 15.7956 44 15 44ZM33 44C32.2044 44 31.4413 43.6839 30.8787 43.1213C30.3161 42.5587 30 41.7956 30 41C30 40.2044 30.3161 39.4413 30.8787 38.8787C31.4413 38.3161 32.2044 38 33 38C33.7956 38 34.5587 38.3161 35.1213 38.8787C35.6839 39.4413 36 40.2044 36 41C36 41.7956 35.6839 42.5587 35.1213 43.1213C34.5587 43.6839 33.7956 44 33 44ZM28 10H30C30.5304 10 31.0391 10.2107 31.4142 10.5858C31.7893 10.9609 32 11.4696 32 12C32 12.5304 31.7893 13.0391 31.4142 13.4142C31.0391 13.7893 30.5304 14 30 14H28V16C28 16.5304 27.7893 17.0391 27.4142 17.4142C27.0391 17.7893 26.5304 18 26 18C25.4696 18 24.9609 17.7893 24.5858 17.4142C24.2107 17.0391 24 16.5304 24 16V14H22C21.4696 14 20.9609 13.7893 20.5858 13.4142C20.2107 13.0391 20 12.5304 20 12C20 11.4696 20.2107 10.9609 20.5858 10.5858C20.9609 10.2107 21.4696 10 22 10H24V8C24 7.46957 24.2107 6.96086 24.5858 6.58579C24.9609 6.21071 25.4696 6 26 6C26.5304 6 27.0391 6.21071 27.4142 6.58579C27.7893 6.96086 28 7.46957 28 8V10Z" fill="#6B46C1"/>
</svg>
