<svg width="516" height="43" viewBox="0 0 516 43" fill="none" xmlns="http://www.w3.org/2000/svg">
<path d="M15.0469 15.0312C13.2344 16.8438 12.3281 19.0312 12.3281 21.5938C12.3281 24.1562 13.2344 26.3438 15.0469 28.1562C16.8594 29.9688 19.0469 30.875 21.6094 30.875C24.1719 30.875 26.3594 29.9688 28.1719 28.1562C29.9844 26.3438 30.8906 24.1562 30.8906 21.5938C30.8906 19.0312 29.9844 16.8438 28.1719 15.0312C26.3594 13.2188 24.1719 12.3125 21.6094 12.3125C19.0469 12.3125 16.8594 13.2188 15.0469 15.0312ZM11.5078 25.8594C10.9297 24.5 10.6406 23.0781 10.6406 21.5938C10.6406 20.1094 10.9297 18.6953 11.5078 17.3516C12.0859 15.9922 12.8672 14.8203 13.8516 13.8359C14.8359 12.8516 16 12.0703 17.3438 11.4922C18.7031 10.9141 20.125 10.625 21.6094 10.625C23.0938 10.625 24.5078 10.9141 25.8516 11.4922C27.2109 12.0703 28.3828 12.8516 29.3672 13.8359C30.3516 14.8203 31.1328 15.9922 31.7109 17.3516C32.2891 18.6953 32.5781 20.1094 32.5781 21.5938C32.5781 23.0781 32.2891 24.5 31.7109 25.8594C31.1328 27.2031 30.3516 28.3672 29.3672 29.3516C28.3828 30.3359 27.2109 31.1172 25.8516 31.6953C24.5078 32.2734 23.0938 32.5625 21.6094 32.5625C20.125 32.5625 18.7031 32.2734 17.3438 31.6953C16 31.1172 14.8359 30.3359 13.8516 29.3516C12.8672 28.3672 12.0859 27.2031 11.5078 25.8594ZM10.6406 15.2422C9.51562 17.1797 8.95312 19.2969 8.95312 21.5938C8.95312 23.8906 9.51562 26.0078 10.6406 27.9453C11.7812 29.8828 13.3203 31.4219 15.2578 32.5625C17.1953 33.6875 19.3125 34.25 21.6094 34.25C23.9062 34.25 26.0234 33.6875 27.9609 32.5625C29.8984 31.4219 31.4297 29.8828 32.5547 27.9453C33.6953 26.0078 34.2656 23.8906 34.2656 21.5938C34.2656 19.2969 33.6953 17.1797 32.5547 15.2422C31.4297 13.3047 29.8984 11.7734 27.9609 10.6484C26.0234 9.50781 23.9062 8.9375 21.6094 8.9375C19.3125 8.9375 17.1953 9.50781 15.2578 10.6484C13.3203 11.7734 11.7812 13.3047 10.6406 15.2422ZM9.1875 28.7891C7.90625 26.5859 7.26562 24.1875 7.26562 21.5938C7.26562 19 7.90625 16.6016 9.1875 14.3984C10.4688 12.1953 12.2109 10.4531 14.4141 9.17188C16.6172 7.89062 19.0156 7.25 21.6094 7.25C24.2031 7.25 26.6016 7.89062 28.8047 9.17188C31.0078 10.4531 32.75 12.1953 34.0312 14.3984C35.3125 16.6016 35.9531 19 35.9531 21.5938C35.9531 24.1875 35.3125 26.5859 34.0312 28.7891C32.75 30.9922 31.0078 32.7344 28.8047 34.0156C26.6016 35.2969 24.2031 35.9375 21.6094 35.9375C19.0156 35.9375 16.6172 35.2969 14.4141 34.0156C12.2109 32.7344 10.4688 30.9922 9.1875 28.7891ZM6.84375 15.3594C6 17.3438 5.57812 19.4219 5.57812 21.5938C5.57812 23.7656 6 25.8438 6.84375 27.8281C7.6875 29.8125 8.82031 31.5234 10.2422 32.9609C11.6797 34.3828 13.3906 35.5156 15.375 36.3594C17.3594 37.2031 19.4375 37.625 21.6094 37.625C23.7812 37.625 25.8594 37.2031 27.8438 36.3594C29.8281 35.5156 31.5312 34.3828 32.9531 32.9609C34.3906 31.5234 35.5312 29.8125 36.375 27.8281C37.2188 25.8438 37.6406 23.7656 37.6406 21.5938C37.6406 19.4219 37.2188 17.3438 36.375 15.3594C35.5312 13.375 34.3906 11.6719 32.9531 10.25C31.5312 8.8125 29.8281 7.67188 27.8438 6.82812C25.8594 5.98438 23.7812 5.5625 21.6094 5.5625C19.4375 5.5625 17.3594 5.98438 15.375 6.82812C13.3906 7.67188 11.6797 8.8125 10.2422 10.25C8.82031 11.6719 7.6875 13.375 6.84375 15.3594ZM6.25781 30.4766C4.67969 27.7578 3.89062 24.7969 3.89062 21.5938C3.89062 18.3906 4.67969 15.4297 6.25781 12.7109C7.85156 9.99219 10.0078 7.84375 12.7266 6.26562C15.4453 4.67188 18.4062 3.875 21.6094 3.875C24.8125 3.875 27.7734 4.67188 30.4922 6.26562C33.2109 7.84375 35.3594 9.99219 36.9375 12.7109C38.5312 15.4297 39.3281 18.3906 39.3281 21.5938C39.3281 24.7969 38.5312 27.7578 36.9375 30.4766C35.3594 33.1953 33.2109 35.3516 30.4922 36.9453C27.7734 38.5234 24.8125 39.3125 21.6094 39.3125C18.4062 39.3125 15.4453 38.5234 12.7266 36.9453C10.0078 35.3516 7.85156 33.1953 6.25781 30.4766ZM3.72656 14.0703C2.71094 16.4609 2.20312 18.9688 2.20312 21.5938C2.20312 24.2188 2.71094 26.7344 3.72656 29.1406C4.75781 31.5312 6.14062 33.5938 7.875 35.3281C9.60938 37.0625 11.6719 38.4453 14.0625 39.4766C16.4688 40.4922 18.9844 41 21.6094 41C24.2344 41 26.7422 40.4922 29.1328 39.4766C31.5391 38.4453 33.6094 37.0625 35.3438 35.3281C37.0781 33.5938 38.4531 31.5312 39.4688 29.1406C40.5 26.7344 41.0156 24.2188 41.0156 21.5938C41.0156 18.9688 40.5 16.4609 39.4688 14.0703C38.4531 11.6641 37.0781 9.59375 35.3438 7.85938C33.6094 6.125 31.5391 4.75 29.1328 3.73438C26.7422 2.70312 24.2344 2.1875 21.6094 2.1875C18.9844 2.1875 16.4688 2.70312 14.0625 3.73438C11.6719 4.75 9.60938 6.125 7.875 7.85938C6.14062 9.59375 4.75781 11.6641 3.72656 14.0703ZM2.17969 29.7969C1.07031 27.1875 0.515625 24.4531 0.515625 21.5938C0.515625 18.7344 1.07031 16.0078 2.17969 13.4141C3.30469 10.8047 4.80469 8.5625 6.67969 6.6875C8.57031 4.79688 10.8125 3.29688 13.4062 2.1875C16.0156 1.0625 18.75 0.5 21.6094 0.5C24.4688 0.5 27.1953 1.0625 29.7891 2.1875C32.3984 3.29688 34.6406 4.79688 36.5156 6.6875C38.4062 8.5625 39.9062 10.8047 41.0156 13.4141C42.1406 16.0078 42.7031 18.7344 42.7031 21.5938C42.7031 24.4531 42.1406 27.1875 41.0156 29.7969C39.9062 32.3906 38.4062 34.6328 36.5156 36.5234C34.6406 38.3984 32.3984 39.8906 29.7891 41C27.1953 42.125 24.4688 42.6875 21.6094 42.6875C18.75 42.6875 16.0156 42.125 13.4062 41C10.8125 39.8906 8.57031 38.3984 6.67969 36.5234C4.80469 34.6328 3.30469 32.3906 2.17969 29.7969ZM74.1328 26.8438L75.8203 23.6562V41H74.1328V26.8438ZM77.5078 20.375L79.1953 17.1875V41H77.5078V20.375ZM80.8828 14L82.5703 10.7891V41H80.8828V14ZM69.5625 26.0469L68.6016 24.2891L80.2266 2.1875H82.125L69.5625 26.0469ZM67.6172 22.3672L66.6328 20.5859L76.3828 2.1875H78.3047L67.6172 22.3672ZM56.3203 23.8438L58.0078 27.0312V41H56.3203V23.8438ZM52.9453 17.4219L54.6328 20.6094V41H52.9453V17.4219ZM49.5703 11L51.2578 14.2109V41H49.5703V11ZM63.2109 30.875H61.3125L47.8828 5.39844V41H46.1953V2.1875H48.0938L63.2109 30.875ZM67.0312 30.875H65.1094L50.0156 2.1875H51.9375L67.0312 30.875ZM84.2578 5.39844L70.8281 30.875H68.9062L53.8359 2.1875H55.7344L69.8906 29.0938L84.0234 2.1875H85.9453V41H84.2578V5.39844ZM98.8359 41H97.1484V2.1875H98.8359V41ZM95.4609 41H93.7734V2.1875H95.4609V41ZM92.0859 41H90.3984V2.1875H92.0859V41ZM102.211 32.5625H120.164V34.25H102.211V35.9375H120.164V37.625H102.211V39.3125H120.164V41H100.523V2.1875H120.164V3.875H102.211V5.5625H120.164V7.25H102.211V8.9375H120.164V10.625H102.211V17.375H111.422V19.0625H102.211V20.75H111.422V22.4375H102.211V24.125H111.422V25.8125H102.211V32.5625ZM155.344 20.7266H157.031V41H155.344V20.7266ZM162.094 20.7266H163.781V41H162.094V20.7266ZM158.719 20.7266H160.406V41H158.719V20.7266ZM153.656 20.7266V41C150.688 42.125 147.609 42.6875 144.422 42.6875C141.656 42.6875 139.008 42.1797 136.477 41.1641C133.945 40.1484 131.719 38.7422 129.797 36.9453C127.875 35.1328 126.336 32.8984 125.18 30.2422C124.039 27.5703 123.469 24.6875 123.469 21.5938C123.469 18.7344 124.023 16.0078 125.133 13.4141C126.258 10.8047 127.758 8.5625 129.633 6.6875C131.523 4.79688 133.766 3.29688 136.359 2.1875C138.969 1.0625 141.703 0.5 144.562 0.5C148.125 0.5 151.438 1.32812 154.5 2.98438C157.562 4.64062 160.062 6.89062 162 9.73438L160.594 10.6484C158.812 8.03906 156.508 5.97656 153.68 4.46094C150.867 2.94531 147.828 2.1875 144.562 2.1875C141.938 2.1875 139.422 2.70312 137.016 3.73438C134.625 4.75 132.562 6.125 130.828 7.85938C129.094 9.59375 127.711 11.6641 126.68 14.0703C125.664 16.4609 125.156 18.9688 125.156 21.5938C125.156 24.4219 125.68 27.0625 126.727 29.5156C127.789 31.9688 129.195 34.0234 130.945 35.6797C132.711 37.3359 134.758 38.6406 137.086 39.5938C139.414 40.5312 141.836 41 144.352 41C146.992 41 149.531 40.5859 151.969 39.7578V38.1406C149.641 38.9219 147.195 39.3125 144.633 39.3125C142.773 39.3125 140.961 39.0547 139.195 38.5391C137.445 38.0078 135.82 37.2344 134.32 36.2188C132.836 35.1875 131.531 33.9688 130.406 32.5625C129.297 31.1406 128.422 29.4922 127.781 27.6172C127.156 25.7266 126.844 23.7188 126.844 21.5938C126.844 18.3906 127.633 15.4297 129.211 12.7109C130.805 9.99219 132.961 7.84375 135.68 6.26562C138.398 4.67188 141.359 3.875 144.562 3.875C147.562 3.875 150.352 4.57812 152.93 5.98438C155.508 7.375 157.609 9.26562 159.234 11.6562L157.828 12.5703C156.359 10.4141 154.453 8.71094 152.109 7.46094C149.781 6.19531 147.266 5.5625 144.562 5.5625C142.391 5.5625 140.312 5.98438 138.328 6.82812C136.344 7.67188 134.633 8.8125 133.195 10.25C131.773 11.6719 130.641 13.375 129.797 15.3594C128.953 17.3438 128.531 19.4219 128.531 21.5938C128.531 23.5469 128.812 25.3828 129.375 27.1016C129.953 28.8047 130.742 30.2969 131.742 31.5781C132.758 32.8438 133.938 33.9375 135.281 34.8594C136.625 35.7656 138.086 36.4531 139.664 36.9219C141.258 37.3906 142.891 37.625 144.562 37.625C147.156 37.625 149.625 37.1875 151.969 36.3125V34.625C149.656 35.5156 147.242 35.9609 144.727 35.9609C142.82 35.9609 141 35.6406 139.266 35C137.531 34.3438 135.984 33.4219 134.625 32.2344C133.281 31.0469 132.211 29.5312 131.414 27.6875C130.617 25.8438 130.219 23.8125 130.219 21.5938C130.219 19 130.859 16.6016 132.141 14.3984C133.422 12.1953 135.164 10.4531 137.367 9.17188C139.57 7.89062 141.969 7.25 144.562 7.25C146.984 7.25 149.234 7.8125 151.312 8.9375C153.406 10.0625 155.109 11.5938 156.422 13.5312L155.016 14.4453C153.859 12.7578 152.359 11.4219 150.516 10.4375C148.688 9.4375 146.703 8.9375 144.562 8.9375C142.266 8.9375 140.148 9.50781 138.211 10.6484C136.273 11.7734 134.734 13.3047 133.594 15.2422C132.469 17.1797 131.906 19.2969 131.906 21.5938C131.906 23.1875 132.133 24.6719 132.586 26.0469C133.039 27.4219 133.664 28.6094 134.461 29.6094C135.258 30.6094 136.188 31.4609 137.25 32.1641C138.328 32.8672 139.484 33.3984 140.719 33.7578C141.953 34.1016 143.234 34.2734 144.562 34.2734C147.203 34.2734 149.672 33.75 151.969 32.7031V31.0859C149.75 32.0703 147.352 32.5625 144.773 32.5625C143.289 32.5625 141.891 32.3359 140.578 31.8828C139.266 31.4297 138.078 30.7656 137.016 29.8906C135.969 29.0156 135.133 27.8672 134.508 26.4453C133.898 25.0078 133.594 23.3906 133.594 21.5938C133.594 20.1094 133.883 18.6953 134.461 17.3516C135.039 15.9922 135.82 14.8203 136.805 13.8359C137.789 12.8516 138.953 12.0703 140.297 11.4922C141.656 10.9141 143.078 10.625 144.562 10.625C146.422 10.625 148.148 11.0625 149.742 11.9375C151.336 12.7969 152.633 13.9688 153.633 15.4531L152.25 16.3672C151.406 15.1172 150.305 14.1328 148.945 13.4141C147.602 12.6797 146.141 12.3125 144.562 12.3125C142 12.3125 139.812 13.2188 138 15.0312C136.188 16.8438 135.281 19.0312 135.281 21.5938C135.281 23.1719 135.539 24.5703 136.055 25.7891C136.57 26.9922 137.273 27.9609 138.164 28.6953C139.07 29.4141 140.07 29.9609 141.164 30.3359C142.273 30.6953 143.461 30.875 144.727 30.875C147.32 30.875 149.734 30.3359 151.969 29.2578V20.7266H153.656ZM184.688 29.6094L185.367 27.9219H191.133L191.812 29.6094H184.688ZM183.375 32.9844L184.031 31.2969H192.445L193.172 32.9844H183.375ZM182.062 36.3594L182.719 34.6719H193.781L194.484 36.3594H182.062ZM168.352 41H166.523L181.875 2.1875H183.703L199.031 41H197.227L182.789 4.46094L168.352 41ZM183 8.46875L183.961 10.625L171.961 41H170.156L183 8.46875ZM184.875 12.9219L185.766 15.2422L175.617 41H173.789L184.875 12.9219ZM186.656 17.5625L187.547 19.9297L179.227 41H177.422L186.656 17.5625ZM209.93 41H208.102L192.773 2.1875H194.578L209.93 41ZM190.945 2.1875L206.297 41H204.492L189.141 2.1875H190.945ZM187.312 2.1875L202.664 41H200.836L185.508 2.1875H187.312ZM239.695 15.4531L238.312 16.3672C237.469 15.1172 236.367 14.1328 235.008 13.4141C233.664 12.6797 232.203 12.3125 230.625 12.3125C228.062 12.3125 225.875 13.2188 224.062 15.0312C222.25 16.8438 221.344 19.0312 221.344 21.5938C221.344 24.1562 222.25 26.3438 224.062 28.1562C225.875 29.9688 228.062 30.875 230.625 30.875C232.203 30.875 233.664 30.5078 235.008 29.7734C236.367 29.0391 237.469 28.0469 238.312 26.7969L239.672 27.7812C238.672 29.25 237.375 30.4141 235.781 31.2734C234.188 32.1328 232.469 32.5625 230.625 32.5625C229.141 32.5625 227.719 32.2734 226.359 31.6953C225.016 31.1172 223.852 30.3359 222.867 29.3516C221.883 28.3672 221.102 27.2031 220.523 25.8594C219.945 24.5 219.656 23.0781 219.656 21.5938C219.656 20.1094 219.945 18.6953 220.523 17.3516C221.102 15.9922 221.883 14.8203 222.867 13.8359C223.852 12.8516 225.016 12.0703 226.359 11.4922C227.719 10.9141 229.141 10.625 230.625 10.625C232.484 10.625 234.211 11.0625 235.805 11.9375C237.398 12.7969 238.695 13.9688 239.695 15.4531ZM242.484 13.5312L241.078 14.4453C239.922 12.7578 238.422 11.4219 236.578 10.4375C234.75 9.4375 232.766 8.9375 230.625 8.9375C228.328 8.9375 226.211 9.50781 224.273 10.6484C222.336 11.7734 220.797 13.3047 219.656 15.2422C218.531 17.1797 217.969 19.2969 217.969 21.5938C217.969 23.8906 218.531 26.0078 219.656 27.9453C220.797 29.8828 222.336 31.4219 224.273 32.5625C226.211 33.6875 228.328 34.25 230.625 34.25C232.766 34.25 234.758 33.75 236.602 32.75C238.445 31.75 239.945 30.3984 241.102 28.6953L242.484 29.6562C241.172 31.5938 239.469 33.125 237.375 34.25C235.297 35.375 233.047 35.9375 230.625 35.9375C228.031 35.9375 225.633 35.2969 223.43 34.0156C221.227 32.7344 219.484 30.9922 218.203 28.7891C216.922 26.5859 216.281 24.1875 216.281 21.5938C216.281 19 216.922 16.6016 218.203 14.3984C219.484 12.1953 221.227 10.4531 223.43 9.17188C225.633 7.89062 228.031 7.25 230.625 7.25C233.047 7.25 235.297 7.8125 237.375 8.9375C239.469 10.0625 241.172 11.5938 242.484 13.5312ZM245.297 11.6562L243.891 12.5703C242.422 10.4141 240.516 8.71094 238.172 7.46094C235.844 6.19531 233.328 5.5625 230.625 5.5625C228.453 5.5625 226.375 5.98438 224.391 6.82812C222.406 7.67188 220.695 8.8125 219.258 10.25C217.836 11.6719 216.703 13.375 215.859 15.3594C215.016 17.3438 214.594 19.4219 214.594 21.5938C214.594 23.7656 215.016 25.8438 215.859 27.8281C216.703 29.8125 217.836 31.5234 219.258 32.9609C220.695 34.3828 222.406 35.5156 224.391 36.3594C226.375 37.2031 228.453 37.625 230.625 37.625C233.344 37.625 235.867 36.9922 238.195 35.7266C240.523 34.4609 242.422 32.75 243.891 30.5938L245.25 31.6016C243.625 33.9766 241.523 35.8594 238.945 37.25C236.383 38.625 233.609 39.3125 230.625 39.3125C227.422 39.3125 224.461 38.5234 221.742 36.9453C219.023 35.3516 216.867 33.1953 215.273 30.4766C213.695 27.7578 212.906 24.7969 212.906 21.5938C212.906 18.3906 213.695 15.4297 215.273 12.7109C216.867 9.99219 219.023 7.84375 221.742 6.26562C224.461 4.67188 227.422 3.875 230.625 3.875C233.625 3.875 236.414 4.57812 238.992 5.98438C241.57 7.375 243.672 9.26562 245.297 11.6562ZM248.062 9.73438L246.656 10.6484C244.875 8.03906 242.57 5.97656 239.742 4.46094C236.93 2.94531 233.891 2.1875 230.625 2.1875C228 2.1875 225.484 2.70312 223.078 3.73438C220.688 4.75 218.625 6.125 216.891 7.85938C215.156 9.59375 213.773 11.6641 212.742 14.0703C211.727 16.4609 211.219 18.9688 211.219 21.5938C211.219 24.2188 211.727 26.7344 212.742 29.1406C213.773 31.5312 215.156 33.5938 216.891 35.3281C218.625 37.0625 220.688 38.4453 223.078 39.4766C225.484 40.4922 228 41 230.625 41C233.891 41 236.938 40.2344 239.766 38.7031C242.594 37.1719 244.898 35.1016 246.68 32.4922L248.039 33.5234C246.102 36.3359 243.602 38.5703 240.539 40.2266C237.477 41.8672 234.172 42.6875 230.625 42.6875C227.766 42.6875 225.031 42.125 222.422 41C219.828 39.8906 217.586 38.3984 215.695 36.5234C213.82 34.6328 212.32 32.3906 211.195 29.7969C210.086 27.1875 209.531 24.4531 209.531 21.5938C209.531 18.7344 210.086 16.0078 211.195 13.4141C212.32 10.8047 213.82 8.5625 215.695 6.6875C217.586 4.79688 219.828 3.29688 222.422 2.1875C225.031 1.0625 227.766 0.5 230.625 0.5C234.188 0.5 237.5 1.32812 240.562 2.98438C243.625 4.64062 246.125 6.89062 248.062 9.73438ZM264.984 15.0312C263.172 16.8438 262.266 19.0312 262.266 21.5938C262.266 24.1562 263.172 26.3438 264.984 28.1562C266.797 29.9688 268.984 30.875 271.547 30.875C274.109 30.875 276.297 29.9688 278.109 28.1562C279.922 26.3438 280.828 24.1562 280.828 21.5938C280.828 19.0312 279.922 16.8438 278.109 15.0312C276.297 13.2188 274.109 12.3125 271.547 12.3125C268.984 12.3125 266.797 13.2188 264.984 15.0312ZM261.445 25.8594C260.867 24.5 260.578 23.0781 260.578 21.5938C260.578 20.1094 260.867 18.6953 261.445 17.3516C262.023 15.9922 262.805 14.8203 263.789 13.8359C264.773 12.8516 265.938 12.0703 267.281 11.4922C268.641 10.9141 270.062 10.625 271.547 10.625C273.031 10.625 274.445 10.9141 275.789 11.4922C277.148 12.0703 278.32 12.8516 279.305 13.8359C280.289 14.8203 281.07 15.9922 281.648 17.3516C282.227 18.6953 282.516 20.1094 282.516 21.5938C282.516 23.0781 282.227 24.5 281.648 25.8594C281.07 27.2031 280.289 28.3672 279.305 29.3516C278.32 30.3359 277.148 31.1172 275.789 31.6953C274.445 32.2734 273.031 32.5625 271.547 32.5625C270.062 32.5625 268.641 32.2734 267.281 31.6953C265.938 31.1172 264.773 30.3359 263.789 29.3516C262.805 28.3672 262.023 27.2031 261.445 25.8594ZM260.578 15.2422C259.453 17.1797 258.891 19.2969 258.891 21.5938C258.891 23.8906 259.453 26.0078 260.578 27.9453C261.719 29.8828 263.258 31.4219 265.195 32.5625C267.133 33.6875 269.25 34.25 271.547 34.25C273.844 34.25 275.961 33.6875 277.898 32.5625C279.836 31.4219 281.367 29.8828 282.492 27.9453C283.633 26.0078 284.203 23.8906 284.203 21.5938C284.203 19.2969 283.633 17.1797 282.492 15.2422C281.367 13.3047 279.836 11.7734 277.898 10.6484C275.961 9.50781 273.844 8.9375 271.547 8.9375C269.25 8.9375 267.133 9.50781 265.195 10.6484C263.258 11.7734 261.719 13.3047 260.578 15.2422ZM259.125 28.7891C257.844 26.5859 257.203 24.1875 257.203 21.5938C257.203 19 257.844 16.6016 259.125 14.3984C260.406 12.1953 262.148 10.4531 264.352 9.17188C266.555 7.89062 268.953 7.25 271.547 7.25C274.141 7.25 276.539 7.89062 278.742 9.17188C280.945 10.4531 282.688 12.1953 283.969 14.3984C285.25 16.6016 285.891 19 285.891 21.5938C285.891 24.1875 285.25 26.5859 283.969 28.7891C282.688 30.9922 280.945 32.7344 278.742 34.0156C276.539 35.2969 274.141 35.9375 271.547 35.9375C268.953 35.9375 266.555 35.2969 264.352 34.0156C262.148 32.7344 260.406 30.9922 259.125 28.7891ZM256.781 15.3594C255.938 17.3438 255.516 19.4219 255.516 21.5938C255.516 23.7656 255.938 25.8438 256.781 27.8281C257.625 29.8125 258.758 31.5234 260.18 32.9609C261.617 34.3828 263.328 35.5156 265.312 36.3594C267.297 37.2031 269.375 37.625 271.547 37.625C273.719 37.625 275.797 37.2031 277.781 36.3594C279.766 35.5156 281.469 34.3828 282.891 32.9609C284.328 31.5234 285.469 29.8125 286.312 27.8281C287.156 25.8438 287.578 23.7656 287.578 21.5938C287.578 19.4219 287.156 17.3438 286.312 15.3594C285.469 13.375 284.328 11.6719 282.891 10.25C281.469 8.8125 279.766 7.67188 277.781 6.82812C275.797 5.98438 273.719 5.5625 271.547 5.5625C269.375 5.5625 267.297 5.98438 265.312 6.82812C263.328 7.67188 261.617 8.8125 260.18 10.25C258.758 11.6719 257.625 13.375 256.781 15.3594ZM256.195 30.4766C254.617 27.7578 253.828 24.7969 253.828 21.5938C253.828 18.3906 254.617 15.4297 256.195 12.7109C257.789 9.99219 259.945 7.84375 262.664 6.26562C265.383 4.67188 268.344 3.875 271.547 3.875C274.75 3.875 277.711 4.67188 280.43 6.26562C283.148 7.84375 285.297 9.99219 286.875 12.7109C288.469 15.4297 289.266 18.3906 289.266 21.5938C289.266 24.7969 288.469 27.7578 286.875 30.4766C285.297 33.1953 283.148 35.3516 280.43 36.9453C277.711 38.5234 274.75 39.3125 271.547 39.3125C268.344 39.3125 265.383 38.5234 262.664 36.9453C259.945 35.3516 257.789 33.1953 256.195 30.4766ZM253.664 14.0703C252.648 16.4609 252.141 18.9688 252.141 21.5938C252.141 24.2188 252.648 26.7344 253.664 29.1406C254.695 31.5312 256.078 33.5938 257.812 35.3281C259.547 37.0625 261.609 38.4453 264 39.4766C266.406 40.4922 268.922 41 271.547 41C274.172 41 276.68 40.4922 279.07 39.4766C281.477 38.4453 283.547 37.0625 285.281 35.3281C287.016 33.5938 288.391 31.5312 289.406 29.1406C290.438 26.7344 290.953 24.2188 290.953 21.5938C290.953 18.9688 290.438 16.4609 289.406 14.0703C288.391 11.6641 287.016 9.59375 285.281 7.85938C283.547 6.125 281.477 4.75 279.07 3.73438C276.68 2.70312 274.172 2.1875 271.547 2.1875C268.922 2.1875 266.406 2.70312 264 3.73438C261.609 4.75 259.547 6.125 257.812 7.85938C256.078 9.59375 254.695 11.6641 253.664 14.0703ZM252.117 29.7969C251.008 27.1875 250.453 24.4531 250.453 21.5938C250.453 18.7344 251.008 16.0078 252.117 13.4141C253.242 10.8047 254.742 8.5625 256.617 6.6875C258.508 4.79688 260.75 3.29688 263.344 2.1875C265.953 1.0625 268.688 0.5 271.547 0.5C274.406 0.5 277.133 1.0625 279.727 2.1875C282.336 3.29688 284.578 4.79688 286.453 6.6875C288.344 8.5625 289.844 10.8047 290.953 13.4141C292.078 16.0078 292.641 18.7344 292.641 21.5938C292.641 24.4531 292.078 27.1875 290.953 29.7969C289.844 32.3906 288.344 34.6328 286.453 36.5234C284.578 38.3984 282.336 39.8906 279.727 41C277.133 42.125 274.406 42.6875 271.547 42.6875C268.688 42.6875 265.953 42.125 263.344 41C260.75 39.8906 258.508 38.3984 256.617 36.5234C254.742 34.6328 253.242 32.3906 252.117 29.7969ZM296.133 2.1875H297.82V41H296.133V2.1875ZM306.258 2.1875H307.945V32.5625H321.445V34.25H307.945V35.9375H321.445V37.625H307.945V39.3125H321.445V41H306.258V2.1875ZM302.883 2.1875H304.57V41H302.883V2.1875ZM299.508 2.1875H301.195V41H299.508V2.1875ZM325.195 2.1875H326.883V41H325.195V2.1875ZM335.32 2.1875H337.008V32.5625H350.508V34.25H337.008V35.9375H350.508V37.625H337.008V39.3125H350.508V41H335.32V2.1875ZM331.945 2.1875H333.633V41H331.945V2.1875ZM328.57 2.1875H330.258V41H328.57V2.1875ZM362.695 41H361.008V2.1875H362.695V41ZM359.32 41H357.633V2.1875H359.32V41ZM355.945 41H354.258V2.1875H355.945V41ZM366.07 32.5625H384.023V34.25H366.07V35.9375H384.023V37.625H366.07V39.3125H384.023V41H364.383V2.1875H384.023V3.875H366.07V5.5625H384.023V7.25H366.07V8.9375H384.023V10.625H366.07V17.375H375.281V19.0625H366.07V20.75H375.281V22.4375H366.07V24.125H375.281V25.8125H366.07V32.5625ZM417.492 15.4531L416.109 16.3672C415.266 15.1172 414.164 14.1328 412.805 13.4141C411.461 12.6797 410 12.3125 408.422 12.3125C405.859 12.3125 403.672 13.2188 401.859 15.0312C400.047 16.8438 399.141 19.0312 399.141 21.5938C399.141 24.1562 400.047 26.3438 401.859 28.1562C403.672 29.9688 405.859 30.875 408.422 30.875C410 30.875 411.461 30.5078 412.805 29.7734C414.164 29.0391 415.266 28.0469 416.109 26.7969L417.469 27.7812C416.469 29.25 415.172 30.4141 413.578 31.2734C411.984 32.1328 410.266 32.5625 408.422 32.5625C406.938 32.5625 405.516 32.2734 404.156 31.6953C402.812 31.1172 401.648 30.3359 400.664 29.3516C399.68 28.3672 398.898 27.2031 398.32 25.8594C397.742 24.5 397.453 23.0781 397.453 21.5938C397.453 20.1094 397.742 18.6953 398.32 17.3516C398.898 15.9922 399.68 14.8203 400.664 13.8359C401.648 12.8516 402.812 12.0703 404.156 11.4922C405.516 10.9141 406.938 10.625 408.422 10.625C410.281 10.625 412.008 11.0625 413.602 11.9375C415.195 12.7969 416.492 13.9688 417.492 15.4531ZM420.281 13.5312L418.875 14.4453C417.719 12.7578 416.219 11.4219 414.375 10.4375C412.547 9.4375 410.562 8.9375 408.422 8.9375C406.125 8.9375 404.008 9.50781 402.07 10.6484C400.133 11.7734 398.594 13.3047 397.453 15.2422C396.328 17.1797 395.766 19.2969 395.766 21.5938C395.766 23.8906 396.328 26.0078 397.453 27.9453C398.594 29.8828 400.133 31.4219 402.07 32.5625C404.008 33.6875 406.125 34.25 408.422 34.25C410.562 34.25 412.555 33.75 414.398 32.75C416.242 31.75 417.742 30.3984 418.898 28.6953L420.281 29.6562C418.969 31.5938 417.266 33.125 415.172 34.25C413.094 35.375 410.844 35.9375 408.422 35.9375C405.828 35.9375 403.43 35.2969 401.227 34.0156C399.023 32.7344 397.281 30.9922 396 28.7891C394.719 26.5859 394.078 24.1875 394.078 21.5938C394.078 19 394.719 16.6016 396 14.3984C397.281 12.1953 399.023 10.4531 401.227 9.17188C403.43 7.89062 405.828 7.25 408.422 7.25C410.844 7.25 413.094 7.8125 415.172 8.9375C417.266 10.0625 418.969 11.5938 420.281 13.5312ZM423.094 11.6562L421.688 12.5703C420.219 10.4141 418.312 8.71094 415.969 7.46094C413.641 6.19531 411.125 5.5625 408.422 5.5625C406.25 5.5625 404.172 5.98438 402.188 6.82812C400.203 7.67188 398.492 8.8125 397.055 10.25C395.633 11.6719 394.5 13.375 393.656 15.3594C392.812 17.3438 392.391 19.4219 392.391 21.5938C392.391 23.7656 392.812 25.8438 393.656 27.8281C394.5 29.8125 395.633 31.5234 397.055 32.9609C398.492 34.3828 400.203 35.5156 402.188 36.3594C404.172 37.2031 406.25 37.625 408.422 37.625C411.141 37.625 413.664 36.9922 415.992 35.7266C418.32 34.4609 420.219 32.75 421.688 30.5938L423.047 31.6016C421.422 33.9766 419.32 35.8594 416.742 37.25C414.18 38.625 411.406 39.3125 408.422 39.3125C405.219 39.3125 402.258 38.5234 399.539 36.9453C396.82 35.3516 394.664 33.1953 393.07 30.4766C391.492 27.7578 390.703 24.7969 390.703 21.5938C390.703 18.3906 391.492 15.4297 393.07 12.7109C394.664 9.99219 396.82 7.84375 399.539 6.26562C402.258 4.67188 405.219 3.875 408.422 3.875C411.422 3.875 414.211 4.57812 416.789 5.98438C419.367 7.375 421.469 9.26562 423.094 11.6562ZM425.859 9.73438L424.453 10.6484C422.672 8.03906 420.367 5.97656 417.539 4.46094C414.727 2.94531 411.688 2.1875 408.422 2.1875C405.797 2.1875 403.281 2.70312 400.875 3.73438C398.484 4.75 396.422 6.125 394.688 7.85938C392.953 9.59375 391.57 11.6641 390.539 14.0703C389.523 16.4609 389.016 18.9688 389.016 21.5938C389.016 24.2188 389.523 26.7344 390.539 29.1406C391.57 31.5312 392.953 33.5938 394.688 35.3281C396.422 37.0625 398.484 38.4453 400.875 39.4766C403.281 40.4922 405.797 41 408.422 41C411.688 41 414.734 40.2344 417.562 38.7031C420.391 37.1719 422.695 35.1016 424.477 32.4922L425.836 33.5234C423.898 36.3359 421.398 38.5703 418.336 40.2266C415.273 41.8672 411.969 42.6875 408.422 42.6875C405.562 42.6875 402.828 42.125 400.219 41C397.625 39.8906 395.383 38.3984 393.492 36.5234C391.617 34.6328 390.117 32.3906 388.992 29.7969C387.883 27.1875 387.328 24.4531 387.328 21.5938C387.328 18.7344 387.883 16.0078 388.992 13.4141C390.117 10.8047 391.617 8.5625 393.492 6.6875C395.383 4.79688 397.625 3.29688 400.219 2.1875C402.828 1.0625 405.562 0.5 408.422 0.5C411.984 0.5 415.297 1.32812 418.359 2.98438C421.422 4.64062 423.922 6.89062 425.859 9.73438ZM428.367 3.875V2.1875H453.68V3.875H428.367ZM428.367 7.25V5.5625H453.68V7.25H428.367ZM428.367 10.625V8.9375H453.68V10.625H446.93V41H445.242V10.625H443.555V41H441.867V10.625H440.18V41H438.492V10.625H436.805V41H435.117V10.625H428.367ZM467.648 2.1875H469.336V41H467.648V2.1875ZM464.273 2.1875H465.961V41H464.273V2.1875ZM460.898 2.1875H462.586V41H460.898V2.1875ZM457.523 2.1875H459.211V41H457.523V2.1875ZM472.477 2.1875H474.305L488.742 38.7266L503.18 2.1875H504.984L489.656 41H487.828L472.477 2.1875ZM489.914 32.5625L488.953 34.7188L476.109 2.1875H477.914L489.914 32.5625ZM491.719 27.9453L490.828 30.2656L479.742 2.1875H481.57L491.719 27.9453ZM493.5 23.2578L492.609 25.625L483.375 2.1875H485.18L493.5 23.2578ZM514.055 2.1875H515.883L500.531 41H498.727L514.055 2.1875ZM510.445 2.1875H512.25L496.898 41H495.094L510.445 2.1875ZM506.789 2.1875H508.617L493.266 41H491.461L506.789 2.1875Z" fill="url(#paint0_linear_372_348)"/>
<defs>
<linearGradient id="paint0_linear_372_348" x1="-1" y1="22.5" x2="517" y2="22.5" gradientUnits="userSpaceOnUse">
<stop stop-color="#FEAC5E"/>
<stop offset="0.5" stop-color="#C779D0"/>
<stop offset="1" stop-color="#4BC0C8"/>
</linearGradient>
</defs>
</svg>
