<svg width="112" height="57" viewBox="0 0 112 57" fill="none" xmlns="http://www.w3.org/2000/svg">
<path d="M19.4688 19.375C17.0521 21.7917 15.8438 24.7083 15.8438 28.125C15.8438 31.5417 17.0521 34.4583 19.4688 36.875C21.8854 39.2917 24.8021 40.5 28.2188 40.5C31.6354 40.5 34.5521 39.2917 36.9688 36.875C39.3854 34.4583 40.5938 31.5417 40.5938 28.125C40.5938 24.7083 39.3854 21.7917 36.9688 19.375C34.5521 16.9583 31.6354 15.75 28.2188 15.75C24.8021 15.75 21.8854 16.9583 19.4688 19.375ZM14.75 33.8125C13.9792 32 13.5938 30.1042 13.5938 28.125C13.5938 26.1458 13.9792 24.2604 14.75 22.4688C15.5208 20.6562 16.5625 19.0938 17.875 17.7812C19.1875 16.4688 20.7396 15.4271 22.5312 14.6562C24.3438 13.8854 26.2396 13.5 28.2188 13.5C30.1979 13.5 32.0833 13.8854 33.875 14.6562C35.6875 15.4271 37.25 16.4688 38.5625 17.7812C39.875 19.0938 40.9167 20.6562 41.6875 22.4688C42.4583 24.2604 42.8438 26.1458 42.8438 28.125C42.8438 30.1042 42.4583 32 41.6875 33.8125C40.9167 35.6042 39.875 37.1562 38.5625 38.4688C37.25 39.7812 35.6875 40.8229 33.875 41.5938C32.0833 42.3646 30.1979 42.75 28.2188 42.75C26.2396 42.75 24.3438 42.3646 22.5312 41.5938C20.7396 40.8229 19.1875 39.7812 17.875 38.4688C16.5625 37.1562 15.5208 35.6042 14.75 33.8125ZM13.5938 19.6562C12.0938 22.2396 11.3438 25.0625 11.3438 28.125C11.3438 31.1875 12.0938 34.0104 13.5938 36.5938C15.1146 39.1771 17.1667 41.2292 19.75 42.75C22.3333 44.25 25.1562 45 28.2188 45C31.2812 45 34.1042 44.25 36.6875 42.75C39.2708 41.2292 41.3125 39.1771 42.8125 36.5938C44.3333 34.0104 45.0938 31.1875 45.0938 28.125C45.0938 25.0625 44.3333 22.2396 42.8125 19.6562C41.3125 17.0729 39.2708 15.0312 36.6875 13.5312C34.1042 12.0104 31.2812 11.25 28.2188 11.25C25.1562 11.25 22.3333 12.0104 19.75 13.5312C17.1667 15.0312 15.1146 17.0729 13.5938 19.6562ZM11.6562 37.7188C9.94792 34.7812 9.09375 31.5833 9.09375 28.125C9.09375 24.6667 9.94792 21.4688 11.6562 18.5312C13.3646 15.5938 15.6875 13.2708 18.625 11.5625C21.5625 9.85417 24.7604 9 28.2188 9C31.6771 9 34.875 9.85417 37.8125 11.5625C40.75 13.2708 43.0729 15.5938 44.7812 18.5312C46.4896 21.4688 47.3438 24.6667 47.3438 28.125C47.3438 31.5833 46.4896 34.7812 44.7812 37.7188C43.0729 40.6562 40.75 42.9792 37.8125 44.6875C34.875 46.3958 31.6771 47.25 28.2188 47.25C24.7604 47.25 21.5625 46.3958 18.625 44.6875C15.6875 42.9792 13.3646 40.6562 11.6562 37.7188ZM8.53125 19.8125C7.40625 22.4583 6.84375 25.2292 6.84375 28.125C6.84375 31.0208 7.40625 33.7917 8.53125 36.4375C9.65625 39.0833 11.1667 41.3646 13.0625 43.2812C14.9792 45.1771 17.2604 46.6875 19.9062 47.8125C22.5521 48.9375 25.3229 49.5 28.2188 49.5C31.1146 49.5 33.8854 48.9375 36.5312 47.8125C39.1771 46.6875 41.4479 45.1771 43.3438 43.2812C45.2604 41.3646 46.7812 39.0833 47.9062 36.4375C49.0312 33.7917 49.5938 31.0208 49.5938 28.125C49.5938 25.2292 49.0312 22.4583 47.9062 19.8125C46.7812 17.1667 45.2604 14.8958 43.3438 13C41.4479 11.0833 39.1771 9.5625 36.5312 8.4375C33.8854 7.3125 31.1146 6.75 28.2188 6.75C25.3229 6.75 22.5521 7.3125 19.9062 8.4375C17.2604 9.5625 14.9792 11.0833 13.0625 13C11.1667 14.8958 9.65625 17.1667 8.53125 19.8125ZM7.75 39.9688C5.64583 36.3438 4.59375 32.3958 4.59375 28.125C4.59375 23.8542 5.64583 19.9062 7.75 16.2812C9.875 12.6562 12.75 9.79167 16.375 7.6875C20 5.5625 23.9479 4.5 28.2188 4.5C32.4896 4.5 36.4375 5.5625 40.0625 7.6875C43.6875 9.79167 46.5521 12.6562 48.6562 16.2812C50.7812 19.9062 51.8438 23.8542 51.8438 28.125C51.8438 32.3958 50.7812 36.3438 48.6562 39.9688C46.5521 43.5938 43.6875 46.4688 40.0625 48.5938C36.4375 50.6979 32.4896 51.75 28.2188 51.75C23.9479 51.75 20 50.6979 16.375 48.5938C12.75 46.4688 9.875 43.5938 7.75 39.9688ZM4.375 18.0938C3.02083 21.2812 2.34375 24.625 2.34375 28.125C2.34375 31.625 3.02083 34.9792 4.375 38.1875C5.75 41.375 7.59375 44.125 9.90625 46.4375C12.2188 48.75 14.9688 50.5938 18.1562 51.9688C21.3646 53.3229 24.7188 54 28.2188 54C31.7188 54 35.0625 53.3229 38.25 51.9688C41.4583 50.5938 44.2188 48.75 46.5312 46.4375C48.8438 44.125 50.6771 41.375 52.0312 38.1875C53.4062 34.9792 54.0938 31.625 54.0938 28.125C54.0938 24.625 53.4062 21.2812 52.0312 18.0938C50.6771 14.8854 48.8438 12.125 46.5312 9.8125C44.2188 7.5 41.4583 5.66667 38.25 4.3125C35.0625 2.9375 31.7188 2.25 28.2188 2.25C24.7188 2.25 21.3646 2.9375 18.1562 4.3125C14.9688 5.66667 12.2188 7.5 9.90625 9.8125C7.59375 12.125 5.75 14.8854 4.375 18.0938ZM2.3125 39.0625C0.833333 35.5833 0.09375 31.9375 0.09375 28.125C0.09375 24.3125 0.833333 20.6771 2.3125 17.2188C3.8125 13.7396 5.8125 10.75 8.3125 8.25C10.8333 5.72917 13.8229 3.72917 17.2812 2.25C20.7604 0.75 24.4062 0 28.2188 0C32.0312 0 35.6667 0.75 39.125 2.25C42.6042 3.72917 45.5938 5.72917 48.0938 8.25C50.6146 10.75 52.6146 13.7396 54.0938 17.2188C55.5938 20.6771 56.3438 24.3125 56.3438 28.125C56.3438 31.9375 55.5938 35.5833 54.0938 39.0625C52.6146 42.5208 50.6146 45.5104 48.0938 48.0312C45.5938 50.5312 42.6042 52.5208 39.125 54C35.6667 55.5 32.0312 56.25 28.2188 56.25C24.4062 56.25 20.7604 55.5 17.2812 54C13.8229 52.5208 10.8333 50.5312 8.3125 48.0312C5.8125 45.5104 3.8125 42.5208 2.3125 39.0625ZM100.062 19.9375L98.2188 21.1562C97.0938 19.4896 95.625 18.1771 93.8125 17.2188C92.0208 16.2396 90.0729 15.75 87.9688 15.75C84.5521 15.75 81.6354 16.9583 79.2188 19.375C76.8021 21.7917 75.5938 24.7083 75.5938 28.125C75.5938 31.5417 76.8021 34.4583 79.2188 36.875C81.6354 39.2917 84.5521 40.5 87.9688 40.5C90.0729 40.5 92.0208 40.0104 93.8125 39.0312C95.625 38.0521 97.0938 36.7292 98.2188 35.0625L100.031 36.375C98.6979 38.3333 96.9688 39.8854 94.8438 41.0312C92.7188 42.1771 90.4271 42.75 87.9688 42.75C85.9896 42.75 84.0938 42.3646 82.2812 41.5938C80.4896 40.8229 78.9375 39.7812 77.625 38.4688C76.3125 37.1562 75.2708 35.6042 74.5 33.8125C73.7292 32 73.3438 30.1042 73.3438 28.125C73.3438 26.1458 73.7292 24.2604 74.5 22.4688C75.2708 20.6562 76.3125 19.0938 77.625 17.7812C78.9375 16.4688 80.4896 15.4271 82.2812 14.6562C84.0938 13.8854 85.9896 13.5 87.9688 13.5C90.4479 13.5 92.75 14.0833 94.875 15.25C97 16.3958 98.7292 17.9583 100.062 19.9375ZM103.781 17.375L101.906 18.5938C100.365 16.3438 98.3646 14.5625 95.9062 13.25C93.4688 11.9167 90.8229 11.25 87.9688 11.25C84.9062 11.25 82.0833 12.0104 79.5 13.5312C76.9167 15.0312 74.8646 17.0729 73.3438 19.6562C71.8438 22.2396 71.0938 25.0625 71.0938 28.125C71.0938 31.1875 71.8438 34.0104 73.3438 36.5938C74.8646 39.1771 76.9167 41.2292 79.5 42.75C82.0833 44.25 84.9062 45 87.9688 45C90.8229 45 93.4792 44.3333 95.9375 43C98.3958 41.6667 100.396 39.8646 101.938 37.5938L103.781 38.875C102.031 41.4583 99.7604 43.5 96.9688 45C94.1979 46.5 91.1979 47.25 87.9688 47.25C84.5104 47.25 81.3125 46.3958 78.375 44.6875C75.4375 42.9792 73.1146 40.6562 71.4062 37.7188C69.6979 34.7812 68.8438 31.5833 68.8438 28.125C68.8438 24.6667 69.6979 21.4688 71.4062 18.5312C73.1146 15.5938 75.4375 13.2708 78.375 11.5625C81.3125 9.85417 84.5104 9 87.9688 9C91.1979 9 94.1979 9.75 96.9688 11.25C99.7604 12.75 102.031 14.7917 103.781 17.375ZM107.531 14.875L105.656 16.0938C103.698 13.2188 101.156 10.9479 98.0312 9.28125C94.9271 7.59375 91.5729 6.75 87.9688 6.75C85.0729 6.75 82.3021 7.3125 79.6562 8.4375C77.0104 9.5625 74.7292 11.0833 72.8125 13C70.9167 14.8958 69.4062 17.1667 68.2812 19.8125C67.1562 22.4583 66.5938 25.2292 66.5938 28.125C66.5938 31.0208 67.1562 33.7917 68.2812 36.4375C69.4062 39.0833 70.9167 41.3646 72.8125 43.2812C74.7292 45.1771 77.0104 46.6875 79.6562 47.8125C82.3021 48.9375 85.0729 49.5 87.9688 49.5C91.5938 49.5 94.9583 48.6562 98.0625 46.9688C101.167 45.2812 103.698 43 105.656 40.125L107.469 41.4688C105.302 44.6354 102.5 47.1458 99.0625 49C95.6458 50.8333 91.9479 51.75 87.9688 51.75C83.6979 51.75 79.75 50.6979 76.125 48.5938C72.5 46.4688 69.625 43.5938 67.5 39.9688C65.3958 36.3438 64.3438 32.3958 64.3438 28.125C64.3438 23.8542 65.3958 19.9062 67.5 16.2812C69.625 12.6562 72.5 9.79167 76.125 7.6875C79.75 5.5625 83.6979 4.5 87.9688 4.5C91.9688 4.5 95.6875 5.4375 99.125 7.3125C102.562 9.16667 105.365 11.6875 107.531 14.875ZM111.219 12.3125L109.344 13.5312C106.969 10.0521 103.896 7.30208 100.125 5.28125C96.375 3.26042 92.3229 2.25 87.9688 2.25C84.4688 2.25 81.1146 2.9375 77.9062 4.3125C74.7188 5.66667 71.9688 7.5 69.6562 9.8125C67.3438 12.125 65.5 14.8854 64.125 18.0938C62.7708 21.2812 62.0938 24.625 62.0938 28.125C62.0938 31.625 62.7708 34.9792 64.125 38.1875C65.5 41.375 67.3438 44.125 69.6562 46.4375C71.9688 48.75 74.7188 50.5938 77.9062 51.9688C81.1146 53.3229 84.4688 54 87.9688 54C92.3229 54 96.3854 52.9792 100.156 50.9375C103.927 48.8958 107 46.1354 109.375 42.6562L111.188 44.0312C108.604 47.7812 105.271 50.7604 101.188 52.9688C97.1042 55.1562 92.6979 56.25 87.9688 56.25C84.1562 56.25 80.5104 55.5 77.0312 54C73.5729 52.5208 70.5833 50.5312 68.0625 48.0312C65.5625 45.5104 63.5625 42.5208 62.0625 39.0625C60.5833 35.5833 59.8438 31.9375 59.8438 28.125C59.8438 24.3125 60.5833 20.6771 62.0625 17.2188C63.5625 13.7396 65.5625 10.75 68.0625 8.25C70.5833 5.72917 73.5729 3.72917 77.0312 2.25C80.5104 0.75 84.1562 0 87.9688 0C92.7188 0 97.1354 1.10417 101.219 3.3125C105.302 5.52083 108.635 8.52083 111.219 12.3125Z" fill="url(#paint0_linear_372_347)"/>
<defs>
<linearGradient id="paint0_linear_372_347" x1="-2" y1="29.5" x2="113" y2="29.5" gradientUnits="userSpaceOnUse">
<stop stop-color="#FEAC5E"/>
<stop offset="0.5" stop-color="#C779D0"/>
<stop offset="1" stop-color="#4BC0C8"/>
</linearGradient>
</defs>
</svg>
