<svg width="48" height="48" viewBox="0 0 48 48" fill="none" xmlns="http://www.w3.org/2000/svg">
<path fill-rule="evenodd" clip-rule="evenodd" d="M28 44H20C18.4 44 16.796 41.754 15.452 38.548L10 44L8 42V34L12.766 29.234C12.28 26.65 12 24.114 12 22C12 14 18 4 24 4C30 4 36 14 36 22C36 24.116 35.72 26.65 35.234 29.234L40 34V42L38 44L32.548 38.548C31.204 41.754 29.602 44 28 44ZM24 40H20.77C20.6426 39.8399 20.5231 39.6737 20.412 39.502C19.718 38.438 18.972 36.772 18.294 34.736C16.91 30.58 16 25.51 16 22C16 15.604 20.888 8 24 8C27.112 8 32 15.604 32 22C32 25.51 31.09 30.582 29.706 34.736C29.026 36.772 28.282 38.436 27.586 39.502C27.4755 39.6737 27.3567 39.8399 27.23 40H24ZM24 24C25.0609 24 26.0783 23.5786 26.8284 22.8284C27.5786 22.0783 28 21.0609 28 20C28 18.9391 27.5786 17.9217 26.8284 17.1716C26.0783 16.4214 25.0609 16 24 16C22.9391 16 21.9217 16.4214 21.1716 17.1716C20.4214 17.9217 20 18.9391 20 20C20 21.0609 20.4214 22.0783 21.1716 22.8284C21.9217 23.5786 22.9391 24 24 24Z" fill="#6B46C1"/>
</svg>
