<svg width="327" height="215" viewBox="0 0 327 215" fill="none" xmlns="http://www.w3.org/2000/svg">
<path d="M120.015 2.0756C74.1078 -5.36084 17.2362 5.17819 37.8345 66.8255C52.8083 111.64 4.64027 117.341 8.18739 145.717C8.18739 186.813 22.9642 214.406 54.8831 214.406C98.1638 212.775 175.543 210.492 233.391 214.406C291.239 218.32 314.37 201.947 318.704 193.271C329.541 186.226 318.331 130.818 323.651 66.8255C329.925 -8.65146 251.225 23.3299 120.015 2.0756Z" fill="#DEEAFF"/>
<path d="M178.231 192.11L178.444 196.1L182.221 196.314L181.936 191.754L178.231 192.11Z" fill="#FFB27D"/>
<path d="M162.411 196.457L163.194 191.611L167.47 192.252L165.546 197.383L162.411 196.457Z" fill="#FFB27D"/>
<path d="M160.701 199.449C160.644 196.371 161.723 195.411 162.269 195.316C163.295 197.54 165.785 196.575 166.901 195.815C167.519 196.575 169.381 198.295 171.889 199.093C174.882 200.518 174.241 201.801 171.889 202.157C168.355 202.442 165.143 200.708 163.979 199.806L163.837 200.447C163.409 200.376 162.184 200.076 160.701 199.449Z" fill="#2555A5"/>
<path d="M160.773 199.378V198.309L163.98 199.521L163.766 200.518L160.773 199.378Z" fill="#133A7A"/>
<path d="M177.233 198.024C176.549 196.656 177.328 195.317 177.803 194.818C179.628 195.787 181.176 195.15 181.936 194.675C182.15 194.675 183.091 194.932 183.148 195.103C184.43 196.243 186.212 196.813 187.209 196.956C188.207 197.098 188.207 196.884 189.561 197.739C191.841 199.592 186.639 200.02 186.568 200.02C186.497 200.02 182.72 200.233 182.079 199.592C181.566 199.079 180.63 198.951 180.226 198.951V199.663L177.233 199.307V198.024Z" fill="#2555A5"/>
<path d="M177.245 199.288L177.245 198.278L180.226 198.879L180.226 199.663L177.245 199.288Z" fill="#133A7A"/>
<path d="M140.036 127.692C142.088 127.578 144.596 128.357 145.594 128.761L147.375 126.623C146.663 126.314 145.152 125.511 144.81 124.77C144.383 123.844 144.24 122.846 141.888 121.849C139.537 120.851 140.392 121.778 141.817 122.846C142.957 123.702 141.936 123.607 141.247 123.488L138.397 122.348C135.903 121.35 135.546 121.706 137.827 122.989C139.343 123.842 138.04 123.702 136.687 123.203C134.463 122.462 135.19 123.322 135.831 123.844L137.257 124.628C137.28 124.652 137.143 124.656 136.401 124.485C133.836 124.2 135.095 124.984 136.045 125.412C136.758 125.578 138.04 125.939 137.47 126.053C134.905 125.597 135.451 126.243 136.045 126.623C136.924 126.908 138.953 127.521 140.036 127.692Z" fill="#FFB27D"/>
<path d="M170.677 115.293C169.252 111.701 176.069 113.416 179.656 114.723C179.846 114.841 180.112 115.378 179.656 116.575C177.874 119.64 173.171 118.784 170.677 115.293Z" fill="white"/>
<path d="M176.306 117.359L177.019 116.433L178.23 117.145L177.802 117.929L180.51 128.191L176.306 128.903L177.019 117.929L176.306 117.359Z" fill="#545272"/>
<path d="M171.532 114.652L172.102 109.45L178.373 111.944C178.373 112.847 178.416 114.908 178.587 115.934C176.705 118.158 173.1 116.006 171.532 114.652Z" fill="#FFB27D"/>
<path d="M181.08 107.811C181.365 103.478 180.819 101.493 180.51 101.041C174.524 96.6233 169.109 104.889 171.389 109.236C173.669 113.583 177.375 113.725 178.444 113.44C179.513 113.155 180.724 113.227 181.08 107.811Z" fill="#FFB27D"/>
<path d="M170.463 101.896C169.406 106.299 171.104 109.165 171.959 110.02L172.387 108.595C172.292 108.737 171.945 108.566 171.318 106.742C170.962 104.177 172.672 105.602 173.1 106.172C173.527 105.673 174.097 102.68 174.097 102.11C176.492 102.509 179.655 101.944 180.938 101.611C180.795 100.685 180.012 99.9724 179.228 99.1172C178.586 98.3334 171.746 96.552 170.463 101.896Z" fill="#545272"/>
<path d="M203.599 125.055C203.143 125.853 201.651 127.336 200.962 127.977L201.96 129.972L206.378 130.186C207.423 129.83 209.798 128.946 210.938 128.262C212.078 127.578 211.271 127.644 210.725 127.763L209.727 127.977C209.869 127.763 210.425 127.179 211.508 126.552C212.591 125.925 211.58 125.91 210.938 125.982L209.513 126.552C209.917 126.196 210.81 125.397 211.152 125.055C211.793 123.63 209.941 125.055 209.727 125.269C209.556 125.44 208.801 125.815 208.444 125.982C208.468 125.863 208.801 125.298 209.941 123.986C211.152 122.134 209.228 123.488 207.945 124.699C207.033 125.725 205.618 125.744 205.024 125.625C205.071 125.507 205.295 125.098 205.808 124.414C207.09 121.492 204.169 124.058 203.599 125.055Z" fill="#FFB27D"/>
<path d="M165.547 169.449V149.853L184.003 145.649L184.715 149.283V171.231C184.288 177.905 183.433 191.696 183.433 193.463C182.35 194.376 178.896 193.843 177.304 193.463C177.162 186.955 176.877 173.639 176.877 172.442C176.136 171.872 175.571 167.739 175.38 165.744L173.171 175.15C171.746 180.922 168.739 192.993 168.112 195.102C166.003 195.216 163.243 193.772 162.126 193.036C162.364 189.996 163.096 182.988 164.122 179.283C165.148 175.578 165.499 171.183 165.547 169.449Z" fill="#1D468A"/>
<path d="M176.876 158.475C176.591 159.045 175.712 163.369 175.309 165.459C175.617 166.718 176.363 169.05 176.876 168.309C177.518 167.383 177.233 157.763 176.876 158.475Z" fill="#173870"/>
<path d="M177.874 149.639C177.361 151.065 177.09 151.991 176.734 151.92L177.375 155.554C177.922 153.725 178.786 149.981 177.874 149.639Z" fill="#173870"/>
<path d="M145.381 124.628C144.355 125.54 143.291 127.763 142.887 128.761C144.929 130.115 149.87 133.264 153.29 135.031C156.711 136.799 160.369 133.677 161.77 131.896L164.692 127.906V152.632C164.573 152.561 164.45 152.49 164.906 152.775C170.036 155.269 176.735 152.989 178.516 149.354C182.507 153.516 184.929 151.706 185.642 150.281L183.86 129.972C184.383 130.732 186.297 132.808 189.775 135.031C193.252 136.97 197.115 135.364 198.611 134.319C200.036 133.392 203.1 131.397 203.955 130.827C203.898 129.744 202.649 127.715 202.031 126.837L193.552 128.832C192.411 127.62 189.575 124.357 187.352 120.993C185.414 117.459 182.554 115.815 181.366 115.435L177.376 127.193C175.238 122.87 170.421 114.366 168.255 114.936C165.547 115.649 164.193 116.433 162.34 118.072C160.858 119.383 157.067 125.411 155.357 128.262C152.578 127.24 146.692 125.084 145.381 124.628Z" fill="#F99744"/>
<path d="M179.37 118.571C179.769 115.948 178.776 114.723 178.23 114.438C178.277 114.414 178.401 114.324 178.515 114.153C179.37 114.267 181.009 115.293 181.722 115.792L180.296 119.711C180.368 119.925 180.653 120.395 181.223 120.566C180.539 123.131 178.8 126.67 178.016 128.119C178.301 126.029 178.971 121.193 179.37 118.571Z" fill="#CD7123"/>
<path d="M168.397 114.865C168.568 114.409 170.321 113.677 171.176 113.369C170.819 114.723 172.815 119.711 174.382 121.777C176.207 124.114 177.423 127.217 177.803 128.475L171.746 121.777L172.815 120.922C171.437 119.188 168.625 115.549 168.397 114.865Z" fill="#CD7123"/>
<path d="M166.971 124.842C166.857 125.241 165.404 127.003 164.691 127.834V128.975C165.546 128.096 167.199 126.039 166.971 124.842Z" fill="#C67633"/>
<path d="M183.361 120.209L183.86 129.758L185.285 131.468C185.333 131.516 185.399 131.411 185.285 130.613C185.342 127.706 184.026 122.466 183.361 120.209Z" fill="#C67633"/>
<path d="M172.388 106.1C172.055 105.982 171.49 105.986 171.889 106.956C172.288 107.925 172.435 108.072 172.459 108.024" stroke="#545272"/>
<path d="M172.031 110.518C173.408 111.777 176.606 114.124 178.373 113.44C177.161 114.936 172.031 113.654 172.031 110.518Z" fill="#EC9F6A"/>
<path d="M299.544 203.081L296.07 184.357L297.13 183.698L300.934 203.081H299.544Z" fill="url(#paint0_linear_192_1635)"/>
<path d="M287.731 203.41L290.657 187.867L289.304 188.379L286.268 203.41H287.731Z" fill="url(#paint1_linear_192_1635)"/>
<path d="M276.943 203.081L274.383 190.062H273.14L275.627 203.081H276.943Z" fill="url(#paint2_linear_192_1635)"/>
<path d="M258.407 198.178L261.735 181.684H262.942L259.614 198.178H258.407Z" fill="url(#paint3_linear_192_1635)"/>
<path d="M301.853 167.272C299.549 151.943 293.592 147.431 290.173 147.173C275.003 144.332 269.573 158.234 268.108 160.687C266.643 163.14 266.686 169.467 261.342 178.807C255.998 188.146 259.426 179.929 260.03 186.142C302.712 202.599 303.586 178.807 301.853 167.272Z" fill="url(#paint4_linear_192_1635)"/>
<path d="M295.284 164.163C294.319 151.027 288.275 147.304 285.373 147.085C272.5 144.671 267.892 156.483 266.649 158.568C265.406 160.652 265.442 166.028 260.907 173.964C256.373 181.9 258.347 186.728 261.2 187.459C294.845 194.993 296.004 173.964 295.284 164.163Z" fill="url(#paint5_linear_192_1635)"/>
<path d="M273.091 182.622C273.337 182.641 295.662 177.6 283.28 177.818C273.374 177.993 272.36 181.094 273.091 182.622Z" fill="#D0A85B"/>
<path d="M27.1971 198.19L30.7554 179.013L29.6692 178.338L25.7738 198.19H27.1971Z" fill="url(#paint6_linear_192_1635)"/>
<path d="M39.2959 198.527L36.2994 182.608L37.6853 183.132L40.7942 198.527H39.2959Z" fill="url(#paint7_linear_192_1635)"/>
<path d="M50.3448 198.19L52.9667 184.855H54.2402L51.6932 198.19H50.3448Z" fill="url(#paint8_linear_192_1635)"/>
<path d="M69.3295 193.168L65.921 176.276H64.685L68.0935 193.168H69.3295Z" fill="url(#paint9_linear_192_1635)"/>
<path d="M24.8336 161.515C27.1926 145.814 33.2937 141.194 36.7955 140.929C52.3327 138.02 57.8943 152.258 59.3951 154.771C60.8958 157.283 60.8517 163.763 66.3251 173.329C71.7984 182.894 68.2869 174.478 67.6689 180.842C23.953 197.697 23.0586 173.329 24.8336 161.515Z" fill="url(#paint10_linear_192_1635)"/>
<path d="M31.562 158.331C32.5508 144.877 38.7411 141.063 41.7126 140.839C54.8972 138.367 59.6166 150.465 60.8902 152.6C62.1637 154.735 62.1262 160.241 66.7708 168.369C71.4153 176.497 69.3927 181.441 66.4711 182.19C32.0115 189.906 30.8242 168.369 31.562 158.331Z" fill="url(#paint11_linear_192_1635)"/>
<path d="M54.2914 177.236C54.0401 177.255 31.1744 172.092 43.8563 172.316C54.0018 172.495 55.0404 175.671 54.2914 177.236Z" fill="#D0A85B"/>
<path d="M258.121 209.572C250.703 212.678 252.616 206.644 256.95 205.473L253.67 179.47L261.869 182.989L260.151 206.186C260.047 206.426 259.745 208.612 258.121 209.572Z" fill="#FFB27D"/>
<path d="M249.238 209.142C247.336 210.766 248.709 211.12 249.634 211.094L260.412 210.859L260.699 207.659C260.936 207.216 260.113 205.472 256.529 207.659C255.545 208.259 254.257 208.049 253.913 206.644C253.147 206.8 251.14 207.518 249.238 209.142Z" fill="#50246B"/>
<path d="M241.748 200.843L250.391 179.472C250.471 179.392 255.539 181.563 258.122 182.849C253.676 189.623 244.575 203.446 243.745 204.538C242.706 205.904 243.425 206.868 243.266 207.591C242.946 207.591 242.227 207.832 238.074 208.957C233.921 210.081 236.556 207.35 238.473 206.225C240.007 205.326 241.295 202.262 241.748 200.843Z" fill="#FFB27D"/>
<path d="M232.839 209.142C230.937 210.766 232.311 211.12 233.236 211.094L244.013 210.859V207.19C244.251 206.748 243.807 206.222 240.13 207.659C236.453 209.095 236.855 207.581 237.515 206.644C236.749 206.8 234.741 207.518 232.839 209.142Z" fill="#50246B"/>
<path d="M249.982 177.938C249.275 179.357 250.009 179.98 250.464 180.115L262.431 186.966C263.368 184.468 260.102 177.294 272.229 179.148C286.814 179.857 288.962 169.663 288.212 164.477C284.464 164.504 276.791 164.703 276.084 165.283C275.201 166.009 264.118 169.636 259.058 170.2C253.998 170.765 250.866 176.165 249.982 177.938Z" fill="url(#paint12_linear_192_1635)"/>
<path d="M274.051 166.309C274.762 166.183 274.509 164.418 274.294 163.551L288.27 162.369C288.324 162.684 288.399 163.63 288.27 164.89C286.492 166.23 276.313 166.466 274.051 166.309Z" fill="#8B49B3"/>
<path d="M274.52 164.243C271.029 153.399 271.826 147.499 272.661 145.904C272.661 137.957 280.209 132.164 284.007 131.446L288.341 163.047C285.943 163.339 279.822 163.988 274.52 164.243Z" fill="url(#paint13_linear_192_1635)"/>
<path d="M262.93 150.656L254.607 145.807L257.008 141.754L261.01 144.218L267.492 143.661L262.93 150.656Z" fill="url(#paint14_linear_192_1635)"/>
<path d="M245.108 137.309C245.62 138.327 248.359 139.853 249.665 140.489C250.752 141.252 253.902 144.305 255.341 145.736L257.419 142.715C256.86 142.344 255.277 141.38 253.422 140.489C251.024 139.774 250.624 138.661 249.425 136.753C248.226 134.844 248.945 136.673 248.785 137.15C248.657 137.532 247.986 137.044 247.666 136.753C247.106 136.143 245.811 135.051 245.108 135.56C244.229 136.196 244.468 136.037 245.108 137.309Z" fill="#FFB27D"/>
<path d="M257.029 141.754C255.03 143.393 254.582 145.17 254.608 145.853L255.935 146.673L258.356 142.738C258.225 142.628 257.778 142.278 257.029 141.754Z" fill="#4586F2"/>
<path d="M240.353 150.106C239.017 151.041 239.796 151.275 240.353 151.275C240.989 151.119 242.341 150.792 242.659 150.729C243.057 150.651 244.17 151.664 244.806 151.976C245.315 152.225 247.244 151.872 248.146 151.664L255.62 151.976L255.779 148.782L248.702 149.794C248.199 150.002 246.905 150.262 245.76 149.639C244.17 148.236 242.023 148.938 240.353 150.106Z" fill="#FFB27D"/>
<path d="M273.988 136.106C273.59 134.608 272.494 132.511 271.996 131.649L274.202 129.26L278.685 133.716L274.487 138.625C274.487 138.41 274.387 137.605 273.988 136.106Z" fill="#FFB27D"/>
<path d="M276.784 134.775C275.847 134.438 274.494 135.814 274.051 136.6C274.077 136.712 274.535 137.958 274.598 138.227C275.222 138.006 277.214 136.249 278.268 135.449C278.164 135.364 277.721 135.112 276.784 134.775Z" fill="white"/>
<path d="M278.736 138.951C277.375 135.139 271.743 138.792 269.047 141.333C266.912 143.027 262.577 146.495 262.321 146.812C262.065 147.13 261.307 147.58 260.96 147.765L256.716 148.4V152.53H265.124L275.453 146.415C278.656 144.43 278.416 142.921 278.736 138.951Z" fill="url(#paint15_linear_192_1635)"/>
<path d="M254.855 148.552L254.607 152.291L257.419 152.53V148.313L254.855 148.552Z" fill="#4586F2"/>
<path d="M273.334 134.611C273.958 134.736 274.762 133.082 274.996 132.381L272.665 133.273C272.743 133.481 273.084 134.113 273.334 134.611Z" fill="#E4A579"/>
<path d="M276.459 131.665C270.004 136.104 268.706 131.692 268.864 128.932C268.627 126.734 268.405 121.968 269.418 120.489C270.684 118.64 284.529 126.117 276.459 131.665Z" fill="#FFB27D"/>
<path d="M275.989 132.891C275.732 131.083 276.312 127.833 276.634 126.434C278.219 126.004 281.791 125.192 283.403 125.385C285.015 125.579 286.546 129.394 287.11 131.277C287.378 133.483 287.851 138.298 287.593 139.912C286.949 142.253 287.674 142.575 288.238 144.27C288.802 145.965 289.044 148.063 285.74 148.709C283.097 149.225 282.49 146.88 282.517 145.642V140.154C282.517 137.894 281.308 136.442 279.213 135.877C277.118 135.312 276.312 135.151 275.989 132.891Z" fill="#0F2B53"/>
<path d="M270.542 121.717C269.067 121.272 268.645 124.073 268.618 125.529C268.057 124.893 267.656 122.511 267.736 121.717C267.816 120.923 268.939 119.096 270.061 118.937C270.895 119.382 272.226 118.911 272.787 118.62C273.882 118.223 276.571 117.667 278.559 118.62C281.044 119.811 282.647 122.749 282.487 123.782C282.326 124.814 282.968 124.655 283.609 125.688C284.01 126.799 281.765 128.149 279.28 128.388C276.795 128.626 273.107 125.688 272.626 123.941C272.145 122.193 271.825 121.717 270.542 121.717Z" fill="#163561"/>
<path d="M69.1389 111.117C68.503 110.3 68.4954 108.43 68.5711 107.597C68.7604 107.143 68.7755 105.531 67.322 102.715C65.5051 99.1946 55.2858 112.366 55.6265 114.183C55.899 115.636 55.0587 118.044 54.6045 119.066L61.0768 121.904C61.3796 120.201 62.4621 117.022 64.3697 117.93C66.2773 118.839 67.2841 117.552 67.5491 116.795C67.7005 116.038 68.185 114.297 68.9118 113.388C70.3879 112.82 69.9337 112.139 69.1389 111.117Z" fill="#F7B39D"/>
<path d="M69.7063 104.077C71.5231 106.621 69.5549 107.938 68.3437 108.279C68.3059 107.105 68.0713 104.622 67.4354 104.077C65.3915 104.304 64.8238 105.326 63.8019 106.348C62.9843 107.166 62.6285 109.111 62.5528 109.982C60.1683 106.235 59.2599 109.982 59.6005 111.004C59.9412 112.026 57.5567 112.48 57.5567 113.161C57.5567 113.843 56.9889 114.751 56.6483 114.751C56.3076 114.751 56.0805 115.773 55.8534 116.454C55.1722 116.454 54.3773 113.048 54.0367 112.48C53.7641 112.026 53.2418 109.49 53.0147 108.279C52.5605 107.03 52.1972 104.009 54.3773 101.92C56.5574 99.8306 60.5089 100.065 62.2122 100.444C63.5748 100.898 66.9132 101.761 69.3658 101.579C72.4316 101.352 70.7284 103.51 69.7063 104.077Z" fill="#1C1717"/>
<path d="M59.7143 114.751C59.9868 115.569 62.7801 117.06 64.1427 117.703C62.871 117.431 61.9474 118.877 61.6446 119.634C61.039 118.801 59.8051 116.659 59.7143 114.751Z" fill="#EFA069"/>
<path d="M54.7185 118.839L61.1908 121.791C60.396 123.267 61.5315 125.311 62.4399 128.036C63.7116 129.762 64.2566 136.628 64.3702 139.845C64.1809 142.57 63.5299 148.339 62.4399 149.61C61.0773 151.2 61.8721 156.423 61.8721 159.148C61.8721 161.874 58.5792 160.511 57.2166 159.148C55.854 157.786 52.4476 157.218 51.085 160.17C49.7224 163.123 47.1108 161.419 44.045 161.646C41.5923 161.828 43.023 155.742 44.045 152.676C44.2342 152.563 44.7717 150.519 45.4075 143.252C46.1343 133.804 48.5869 126.976 49.7224 124.743C50.4037 123.835 51.9934 121.814 52.9018 120.996C53.9918 120.814 54.5671 119.482 54.7185 118.839Z" fill="#9566FA"/>
<path d="M59.4959 146.634L62.2211 150.268C62.5996 151.025 63.947 152.402 66.3088 151.857C68.8523 151.857 72.5161 151.555 74.0301 151.403C75.8091 151.252 79.6394 151.04 80.7295 151.403C82.0921 151.857 85.9527 152.084 87.0882 152.198C88.2237 152.312 91.8573 150.495 89.1321 150.835C88.7324 150.835 88.3602 150.881 88.0684 150.935C90.1185 150.426 92.6752 149.646 89.5863 149.813C88.5871 150.086 88.0345 150.078 87.8831 150.041C90.3433 149.208 94.0829 147.792 89.3592 148.792C88.1101 148.792 94.0146 147.088 88.5643 147.77C84.204 148.315 84.2494 147.013 84.8172 146.293C85.6499 146.218 87.179 145.862 86.634 145.044C85.9527 144.022 86.4069 145.612 84.363 145.158C82.7279 144.795 80.4266 146.293 79.4804 147.088L67.1036 146.293L64.6055 142.887L59.4959 146.634Z" fill="#F7B39D"/>
<path d="M50.0627 138.255C46.7698 119.406 59.8279 120.542 63.3479 136.552C63.6132 137.642 65.9565 141.473 67.095 143.252C65.5432 144.463 61.6674 147.43 58.5788 149.61C56.1262 147.067 51.8795 140.981 50.0627 138.255Z" fill="#8959EF"/>
<path d="M76.3009 202.614L74.4841 197.277L78.6854 196.369L80.048 202.614H76.3009Z" fill="#F7B39D"/>
<path d="M74.3706 198.639L66.6493 172.183H76.7551L79.8209 197.618L74.3706 198.639Z" fill="#2D4364"/>
<path d="M75.2243 205.279C74.4548 202.558 75.1884 201.454 75.6514 201.242C77.0819 202.977 79.0674 201.539 79.8814 200.603C80.6074 201.134 82.6628 202.227 85.0767 202.35C88.0674 202.916 87.7974 204.205 85.7922 205.071C82.7199 206.149 79.463 205.359 78.2186 204.83L78.2418 205.432C77.8455 205.469 76.6871 205.489 75.2243 205.279Z" fill="#142743"/>
<path d="M81.637 202.159L81.1828 196.255H85.6112L84.9299 203.295L81.637 202.159Z" fill="#F7B39D"/>
<path d="M80.8756 204.293C80.1258 201.567 80.8673 200.468 81.3318 200.259C82.7497 202.004 84.7456 200.581 85.5663 199.651C86.2884 200.187 88.3358 201.294 90.7489 201.435C93.7354 202.023 93.4561 203.31 91.4448 204.161C88.3648 205.217 85.1136 204.404 83.8731 203.865L83.8919 204.468C83.4953 204.502 82.3369 204.514 80.8756 204.293Z" fill="#193052"/>
<path d="M62.4482 160.033C53.546 157.216 48.33 155.642 42.9175 156.399C39.3978 173.697 49.9576 175.361 55.9756 175.134C61.9937 174.907 64.5824 175.134 69.034 175.134C73.3485 175.134 73.235 174.152 77.0956 177.292L80.616 197.276L86.066 197.617C86.8608 190.728 87.9346 177.263 88.3888 174.265C88.9565 170.518 88.5023 165.181 83.3926 164.841C79.3049 164.568 65.2112 160.676 62.4482 160.033Z" fill="#3C5780"/>
<path d="M269.767 151.86H66.7886C66.1042 151.86 65.5495 152.415 65.5495 153.099C65.5495 153.784 66.1042 154.339 66.7886 154.339H269.767C270.596 154.339 271.191 153.542 270.955 152.747C270.8 152.221 270.316 151.86 269.767 151.86Z" fill="#A4C0EE"/>
<path d="M71.5162 207.391L69.3133 206.749L80.3277 153.696H83.4485L71.5162 207.391Z" fill="#A4C0EE"/>
<path d="M104.008 153.237H100.612L112.544 207.575L115.481 206.565L104.008 153.237Z" fill="#A4C0EE"/>
<path d="M228.287 153.329H225.075L213.785 206.84L216.722 207.483L228.287 153.329Z" fill="#A4C0EE"/>
<path d="M257.384 207.483L245.544 153.604H248.756L260.138 206.932L257.384 207.483Z" fill="#A4C0EE"/>
<path d="M135.444 206.938L133.597 198.643L139.847 197.527L140.84 206.808L135.444 206.938Z" fill="#FFB27D"/>
<path d="M153.064 207.528L152.45 197.674L158.327 196.861L159.117 206.985L153.064 207.528Z" fill="#FFB27D"/>
<path d="M152.363 212.479C151.495 211.611 152.001 206.511 152.363 204.07C153.93 203.889 157.517 203.527 159.325 203.527C159.325 206.873 163.394 207.235 166.469 208.772C168.928 210.002 169.182 211.454 169.001 212.027C167.765 212.178 164.823 212.479 162.942 212.479C160.591 212.479 160.32 211.665 158.873 210.942C157.716 210.363 157.607 211.726 157.698 212.479H152.363Z" fill="#163561"/>
<path d="M157.698 211.666L152.092 211.485L152.273 212.57H157.698V211.666Z" fill="#0A1F3D"/>
<path d="M134.978 212.537C134.023 211.766 133.984 206.642 134.084 204.175C135.623 203.829 139.151 203.088 140.949 202.895C141.305 206.222 145.389 206.148 148.61 207.35C151.186 208.311 151.593 209.728 151.474 210.317C150.261 210.598 147.368 211.211 145.498 211.411C143.16 211.661 142.804 210.881 141.288 210.316C140.076 209.864 140.113 211.23 140.283 211.969L134.978 212.537Z" fill="#163561"/>
<path d="M140.152 210.86L134.571 211.417L134.893 212.468L140.271 211.756L140.152 210.86Z" fill="#0A1F3D"/>
<path d="M151.635 168.392C148.173 159.162 130.001 160.87 121.347 162.878C120.556 164.716 119.006 169.393 119.142 173.398C119.311 178.403 142.048 173.567 144.254 177.385C146.018 180.439 149.91 193.25 151.635 199.273H159.355C159.779 192.232 156.555 179.76 156.555 178.827C156.555 177.894 154.774 173.228 151.635 168.392Z" fill="url(#paint16_linear_192_1635)"/>
<path d="M144.594 147.098C143.1 146.487 140.239 147.862 138.994 148.625C139.39 149.445 140.25 151.119 140.521 151.255C140.861 151.425 141.624 152.188 142.218 151.849C142.812 151.51 143.83 151.085 144.848 151.255C145.866 151.425 146.29 151.085 146.884 150.407C147.478 149.728 147.393 150.492 148.157 151.085C148.92 151.679 150.278 152.019 149.514 149.728C148.751 147.437 146.46 147.862 144.594 147.098Z" fill="#FFB27D"/>
<path d="M125.165 177.809C112.269 173.873 103.503 167.798 100.053 165.168C100.053 152.884 119.792 164.744 129.661 172.21C131.386 173.652 135.277 177.334 137.042 180.524C138.807 183.714 140.436 194.522 141.029 199.528H132.715L130.679 192.486C129.435 187.99 126.59 178.759 125.165 177.809Z" fill="url(#paint17_linear_192_1635)"/>
<path d="M105.059 132.93C106.009 130.962 106.021 127.925 105.907 126.652C103.956 110.193 114.646 111.127 117.361 114.096C120.075 117.065 118.209 122.24 118.209 125.379C118.209 128.518 115.324 127.585 114.137 127.585C113.373 131.827 115.324 133.694 115.494 134.712C113.254 137.698 107.152 135.956 104.38 134.712C104.211 134.938 104.109 134.898 105.059 132.93Z" fill="#FFB27D"/>
<path d="M97.338 135.73C90.7545 142.381 96.4047 158.353 100.053 165.508C112.269 169.92 124.486 165.508 126.268 162.624C128.05 159.739 127.541 144.044 125.25 138.699C122.959 133.354 119.396 132.93 115.069 132.93C109.979 137.274 106.048 134.74 104.719 132.93C103.984 133.128 101.478 133.965 97.338 135.73Z" fill="url(#paint18_linear_192_1635)"/>
<path d="M102.004 124.7C108.452 131.962 111.93 126.142 112.864 122.325C109.131 117.642 112.27 116.386 113.967 117.998H114.476L114.645 115.113C118.378 114.859 118.633 114.35 119.057 111.296C119.531 107.88 116.031 106.319 114.136 105.951C112.581 105.753 108.503 105.747 104.634 107.308C97.4232 111.635 98.4412 117.743 102.004 124.7Z" fill="#163561"/>
<path d="M121.263 149.558L118.124 142.007C116.625 137.85 115.714 130.842 124.062 136.068C127.552 144.212 128.567 146.73 128.683 147.119C129.946 147.772 132.677 147.601 137.043 147.097C138.57 147.776 139.248 148.2 139.757 148.2L141.115 151.679C137.354 153.093 129.034 156.039 125.844 156.514C123.672 154.818 121.885 151.17 121.263 149.558Z" fill="url(#paint19_linear_192_1635)"/>
<path d="M96.5347 210.09L100.662 187.845L99.4023 187.063L94.8837 210.09H96.5347Z" fill="url(#paint20_linear_192_1635)"/>
<path d="M110.569 210.482L107.093 192.016L108.701 192.624L112.307 210.482H110.569Z" fill="url(#paint21_linear_192_1635)"/>
<path d="M115.801 211.139L118.842 195.672H120.319L117.365 211.139H115.801Z" fill="url(#paint22_linear_192_1635)"/>
<path d="M131.735 211.342L127.782 191.747H126.348L130.302 211.342H131.735Z" fill="url(#paint23_linear_192_1635)"/>
<path d="M98.1873 169.783C100.863 152.636 107.781 147.589 111.753 147.3C129.372 144.122 131.908 159.107 133.61 161.851C135.312 164.595 134.661 166.238 137.381 179.404C139.84 191.305 139.409 185.533 138.708 192.484C89.1324 210.893 96.1744 182.686 98.1873 169.783Z" fill="url(#paint24_linear_192_1635)"/>
<line y1="211" x2="327" y2="211" stroke="#355195" stroke-width="4"/>
<path d="M239.579 22.0691C240.057 22.2031 241.187 22.6679 241.878 23.4545C242.742 24.4378 244.146 22.2537 244.08 21.9153C244.015 21.5768 245.419 20.9764 246.118 21.9469C246.816 22.9175 248.208 23.3579 248.957 21.7486C249.707 20.1393 250.353 20.5224 251.068 21.1609C251.784 21.7993 252.15 21.9526 252.652 21.9078" stroke="#FF7C0D" stroke-width="4.75524"/>
<path d="M240.955 83.6973L252.149 80.1259L249.645 91.6067L240.955 83.6973Z" fill="url(#paint25_linear_192_1635)"/>
<rect x="113.052" y="23.2048" width="132.354" height="64.0047" rx="10" fill="white"/>
<circle cx="136.12" cy="50.2777" r="15.5416" fill="#D1E4FF"/>
<path d="M151.662 50.2777C151.662 53.5568 150.624 56.752 148.698 59.4059C146.772 62.0598 144.056 64.0366 140.939 65.0534C137.821 66.0701 134.462 66.0747 131.342 65.0666C128.221 64.0584 125.5 62.0891 123.567 59.4405C121.633 56.7919 120.587 53.5996 120.578 50.3205C120.569 47.0414 121.598 43.8434 123.516 41.1842C125.435 38.5249 128.146 36.5407 131.26 35.5154C134.375 34.49 137.734 34.4762 140.857 35.4757L136.12 50.2777H151.662Z" fill="#00FF57"/>
<path d="M151.662 50.2777C151.662 53.5568 150.624 56.752 148.698 59.4059C146.772 62.0598 144.056 64.0366 140.939 65.0534C137.821 66.0701 134.462 66.0747 131.342 65.0666C128.221 64.0584 125.5 62.0891 123.567 59.4405C121.633 56.7919 120.587 53.5996 120.578 50.3205C120.569 47.0414 121.598 43.8434 123.516 41.1842C125.435 38.5249 128.146 36.5407 131.26 35.5154C134.375 34.49 137.734 34.4762 140.857 35.4757L136.12 50.2777H151.662Z" fill="#81C2FF"/>
<path d="M151.662 50.2777C151.662 53.1458 150.868 55.9579 149.369 58.4028L136.12 50.2777H151.662Z" fill="#BAAFFB"/>
<path d="M151.662 50.2777C151.662 51.7521 151.452 53.2189 151.039 54.6342L136.12 50.2777H151.662Z" fill="#7F91F0"/>
<rect x="120.579" y="69.8301" width="38.7705" height="1.00268" fill="#DEEAFF"/>
<rect x="120.579" y="73.0396" width="33.7571" height="1.00268" fill="#DEEAFF"/>
<rect x="120.579" y="75.876" width="28.7436" height="1.00268" fill="#DEEAFF"/>
<g filter="url(#filter0_f_192_1635)">
<path d="M169.039 78.0719C169.039 78.0719 170.889 59.996 179.567 57.4333C187.587 55.0646 184.789 72.4909 192.518 69.2984C200.785 65.884 197.213 43.2003 205.553 39.9698C212.559 37.2559 222.718 57.5698 229.868 55.2608C236.699 53.0551 236.386 36.1262 236.386 36.1262" stroke="#1E6AD6" stroke-opacity="0.12"/>
<path d="M176.476 77.9048C176.476 77.9048 178.326 59.8289 187.004 57.2662C195.024 54.8976 198.576 69.7336 206.305 66.5411C214.572 63.1267 203.814 47.6289 212.154 44.3984C219.161 41.6845 222.885 53.8098 230.036 51.5008C236.866 49.295 240.48 36.377 240.48 36.377" stroke="#FF7C0D" stroke-opacity="0.12"/>
</g>
<path d="M167.621 76.1812C167.621 76.1812 169.471 58.1053 178.149 55.5426C186.169 53.174 183.371 70.6003 191.1 67.4077C199.367 63.9934 195.795 41.3097 204.135 38.0792C211.142 35.3653 221.3 55.6791 228.45 53.3702C235.281 51.1644 234.968 34.2356 234.968 34.2356" stroke="#1E6AD6"/>
<path d="M175.057 76.0142C175.057 76.0142 176.908 57.9383 185.585 55.3756C193.606 53.007 197.158 67.843 204.887 64.6504C213.153 61.2361 202.396 45.7383 210.736 42.5078C217.742 39.7939 221.467 51.9191 228.617 49.6102C235.448 47.4044 239.062 34.4863 239.062 34.4863" stroke="#FF7C0D"/>
<path d="M96.7808 55.1954L99.5243 48.3366L104.092 54.142L96.7808 55.1954Z" fill="#0176FF"/>
<path d="M158.431 16.2762L157.739 11.9471L161.834 13.5116L158.431 16.2762Z" fill="url(#paint26_linear_192_1635)"/>
<path d="M204.755 77.7666C205.09 78.2757 205.761 79.6137 205.761 80.8937C205.761 82.4935 208.851 81.6209 209.067 81.2573C209.283 80.8937 211.079 81.4754 210.936 82.9299C210.792 84.3843 211.726 85.9115 213.739 85.0388C215.751 84.1662 216.038 85.0388 216.182 86.2024C216.326 87.3659 216.542 87.8023 217.045 88.1659" stroke="#0199FF" stroke-width="4.75524"/>
<path fill-rule="evenodd" clip-rule="evenodd" d="M75.1067 25.2086C72.8197 27.0233 72.4369 30.3483 74.2516 32.6352C76.0662 34.9222 79.3912 35.305 81.6782 33.4903L83.5914 31.9722L85.7677 32.8324L85.4246 30.5176L87.2683 29.0546C89.5553 27.2399 89.9381 23.9149 88.1234 21.628C86.3088 19.341 82.9838 18.9582 80.6968 20.7729L75.1067 25.2086Z" fill="url(#paint27_linear_192_1635)"/>
<path fill-rule="evenodd" clip-rule="evenodd" d="M229.75 18.5143C233.003 18.2291 235.533 16.0445 235.533 13.392C235.533 10.5455 232.62 8.23804 229.026 8.23804C225.432 8.23804 222.519 10.5455 222.519 13.392C222.519 15.9329 224.84 18.0443 227.895 18.4683L228.836 20.0978L229.75 18.5143Z" fill="url(#paint28_linear_192_1635)"/>
<path fill-rule="evenodd" clip-rule="evenodd" d="M108.379 93.7228C109.002 90.517 107.6 87.4823 105.05 86.7508C102.314 85.9659 99.2928 88.13 98.3019 91.5843C97.311 95.0386 98.7258 98.4751 101.462 99.26C103.904 99.9605 106.573 98.3117 107.823 95.493L109.649 95.038L108.379 93.7228Z" fill="#FF7C0D"/>
<defs>
<filter id="filter0_f_192_1635" x="163.541" y="31.1172" width="82.4205" height="52.0056" filterUnits="userSpaceOnUse" color-interpolation-filters="sRGB">
<feFlood flood-opacity="0" result="BackgroundImageFix"/>
<feBlend mode="normal" in="SourceGraphic" in2="BackgroundImageFix" result="shape"/>
<feGaussianBlur stdDeviation="2.5" result="effect1_foregroundBlur_192_1635"/>
</filter>
<linearGradient id="paint0_linear_192_1635" x1="300.951" y1="203.603" x2="300.199" y2="182.972" gradientUnits="userSpaceOnUse">
<stop offset="0.550331" stop-color="#7C8DB7"/>
<stop offset="1" stop-color="#A1ACBB"/>
</linearGradient>
<linearGradient id="paint1_linear_192_1635" x1="290.672" y1="203.829" x2="290.136" y2="187.281" gradientUnits="userSpaceOnUse">
<stop offset="0.550331" stop-color="#7C8DB7"/>
<stop offset="1" stop-color="#A1ACBB"/>
</linearGradient>
<linearGradient id="paint2_linear_192_1635" x1="276.956" y1="203.432" x2="276.523" y2="189.57" gradientUnits="userSpaceOnUse">
<stop offset="0.550331" stop-color="#7C8DB7"/>
<stop offset="1" stop-color="#A1ACBB"/>
</linearGradient>
<linearGradient id="paint3_linear_192_1635" x1="262.958" y1="198.622" x2="262.374" y2="181.063" gradientUnits="userSpaceOnUse">
<stop offset="0.550331" stop-color="#7C8DB7"/>
<stop offset="1" stop-color="#A1ACBB"/>
</linearGradient>
<linearGradient id="paint4_linear_192_1635" x1="280.358" y1="146.792" x2="280.358" y2="191.763" gradientUnits="userSpaceOnUse">
<stop stop-color="#F7CD7E"/>
<stop offset="1" stop-color="#EEBA59"/>
</linearGradient>
<linearGradient id="paint5_linear_192_1635" x1="276.817" y1="146.761" x2="276.817" y2="189.056" gradientUnits="userSpaceOnUse">
<stop stop-color="#FBE0B3"/>
<stop offset="1" stop-color="#FFCB6A"/>
</linearGradient>
<linearGradient id="paint6_linear_192_1635" x1="25.7565" y1="198.725" x2="26.5262" y2="177.595" gradientUnits="userSpaceOnUse">
<stop offset="0.550331" stop-color="#7C8DB7"/>
<stop offset="1" stop-color="#A1ACBB"/>
</linearGradient>
<linearGradient id="paint7_linear_192_1635" x1="36.2838" y1="198.956" x2="36.8326" y2="182.007" gradientUnits="userSpaceOnUse">
<stop offset="0.550331" stop-color="#7C8DB7"/>
<stop offset="1" stop-color="#A1ACBB"/>
</linearGradient>
<linearGradient id="paint8_linear_192_1635" x1="50.3312" y1="198.549" x2="50.7755" y2="184.351" gradientUnits="userSpaceOnUse">
<stop offset="0.550331" stop-color="#7C8DB7"/>
<stop offset="1" stop-color="#A1ACBB"/>
</linearGradient>
<linearGradient id="paint9_linear_192_1635" x1="64.6688" y1="193.623" x2="65.2668" y2="175.639" gradientUnits="userSpaceOnUse">
<stop offset="0.550331" stop-color="#7C8DB7"/>
<stop offset="1" stop-color="#A1ACBB"/>
</linearGradient>
<linearGradient id="paint10_linear_192_1635" x1="46.8485" y1="140.539" x2="46.8485" y2="186.598" gradientUnits="userSpaceOnUse">
<stop stop-color="#F7CD7E"/>
<stop offset="1" stop-color="#EEBA59"/>
</linearGradient>
<linearGradient id="paint11_linear_192_1635" x1="50.4761" y1="140.507" x2="50.4761" y2="183.826" gradientUnits="userSpaceOnUse">
<stop stop-color="#FBE0B3"/>
<stop offset="1" stop-color="#FFCB6A"/>
</linearGradient>
<linearGradient id="paint12_linear_192_1635" x1="269.015" y1="164.477" x2="269.015" y2="186.966" gradientUnits="userSpaceOnUse">
<stop stop-color="#3D8F7D"/>
<stop offset="1" stop-color="#44B09D"/>
</linearGradient>
<linearGradient id="paint13_linear_192_1635" x1="280.142" y1="131.446" x2="280.142" y2="164.243" gradientUnits="userSpaceOnUse">
<stop stop-color="#00A3FE"/>
<stop offset="1" stop-color="#0047FE"/>
</linearGradient>
<linearGradient id="paint14_linear_192_1635" x1="269.158" y1="137.573" x2="255.34" y2="152.316" gradientUnits="userSpaceOnUse">
<stop stop-color="#0045B7"/>
<stop offset="1" stop-color="#0750C9"/>
<stop offset="1" stop-color="#00348A"/>
</linearGradient>
<linearGradient id="paint15_linear_192_1635" x1="281.584" y1="130.151" x2="257.947" y2="155.349" gradientUnits="userSpaceOnUse">
<stop stop-color="#3E86FC"/>
<stop offset="1" stop-color="#0750C9"/>
<stop offset="1" stop-color="#00348A"/>
</linearGradient>
<linearGradient id="paint16_linear_192_1635" x1="139.263" y1="161.292" x2="139.263" y2="199.273" gradientUnits="userSpaceOnUse">
<stop stop-color="#3D8F7D"/>
<stop offset="1" stop-color="#44B09D"/>
</linearGradient>
<linearGradient id="paint17_linear_192_1635" x1="120.541" y1="159.854" x2="120.541" y2="199.528" gradientUnits="userSpaceOnUse">
<stop stop-color="#3D8F7D"/>
<stop offset="1" stop-color="#44B09D"/>
</linearGradient>
<linearGradient id="paint18_linear_192_1635" x1="110.822" y1="132.93" x2="110.822" y2="167.376" gradientUnits="userSpaceOnUse">
<stop stop-color="#00A3FE"/>
<stop offset="1" stop-color="#0047FE"/>
</linearGradient>
<linearGradient id="paint19_linear_192_1635" x1="124.6" y1="135.727" x2="133.966" y2="154.904" gradientUnits="userSpaceOnUse">
<stop stop-color="#4FC0FF"/>
<stop offset="1" stop-color="#0047FE"/>
</linearGradient>
<linearGradient id="paint20_linear_192_1635" x1="94.8636" y1="210.711" x2="95.7566" y2="186.2" gradientUnits="userSpaceOnUse">
<stop offset="0.550331" stop-color="#7C8DB7"/>
<stop offset="1" stop-color="#A1ACBB"/>
</linearGradient>
<linearGradient id="paint21_linear_192_1635" x1="107.075" y1="210.979" x2="107.712" y2="191.319" gradientUnits="userSpaceOnUse">
<stop offset="0.550331" stop-color="#7C8DB7"/>
<stop offset="1" stop-color="#A1ACBB"/>
</linearGradient>
<linearGradient id="paint22_linear_192_1635" x1="115.785" y1="211.556" x2="116.3" y2="195.087" gradientUnits="userSpaceOnUse">
<stop offset="0.550331" stop-color="#7C8DB7"/>
<stop offset="1" stop-color="#A1ACBB"/>
</linearGradient>
<linearGradient id="paint23_linear_192_1635" x1="126.329" y1="211.87" x2="127.023" y2="191.009" gradientUnits="userSpaceOnUse">
<stop offset="0.550331" stop-color="#7C8DB7"/>
<stop offset="1" stop-color="#A1ACBB"/>
</linearGradient>
<linearGradient id="paint24_linear_192_1635" x1="123.153" y1="146.874" x2="123.153" y2="197.179" gradientUnits="userSpaceOnUse">
<stop stop-color="#F7CD7E"/>
<stop offset="1" stop-color="#EEBA59"/>
</linearGradient>
<linearGradient id="paint25_linear_192_1635" x1="240.955" y1="83.6973" x2="254.211" y2="86.5893" gradientUnits="userSpaceOnUse">
<stop stop-color="#00A3FE"/>
<stop offset="1" stop-color="#0047FE"/>
</linearGradient>
<linearGradient id="paint26_linear_192_1635" x1="158.431" y1="16.2762" x2="160.238" y2="11.5471" gradientUnits="userSpaceOnUse">
<stop stop-color="#00A3FE"/>
<stop offset="1" stop-color="#0047FE"/>
</linearGradient>
<linearGradient id="paint27_linear_192_1635" x1="77.9018" y1="22.9908" x2="85.7328" y2="32.8598" gradientUnits="userSpaceOnUse">
<stop stop-color="#7FD1FF"/>
<stop offset="1" stop-color="#83A6FF"/>
</linearGradient>
<linearGradient id="paint28_linear_192_1635" x1="229.026" y1="8.23804" x2="229.026" y2="20.0979" gradientUnits="userSpaceOnUse">
<stop stop-color="#7FD1FF"/>
<stop offset="1" stop-color="#83A6FF"/>
</linearGradient>
</defs>
</svg>
