<svg width="48" height="48" viewBox="0 0 48 48" fill="none" xmlns="http://www.w3.org/2000/svg">
<path fill-rule="evenodd" clip-rule="evenodd" d="M32.6495 29.798L43.4095 40.558C43.7877 40.9364 44.0001 41.4496 43.9999 41.9847C43.9997 42.5197 43.787 43.0328 43.4085 43.411C43.0301 43.7892 42.5169 44.0015 41.9818 44.0014C41.4468 44.0012 40.9337 43.7884 40.5555 43.41L29.7955 32.65C26.579 35.1413 22.5341 36.3137 18.4838 35.9287C14.4335 35.5436 10.682 33.63 7.9925 30.5772C5.303 27.5244 3.87752 23.5616 4.00604 19.4951C4.13456 15.4285 5.80744 11.5637 8.68435 8.68679C11.5613 5.80988 15.4261 4.137 19.4926 4.00848C23.5592 3.87996 27.5219 5.30544 30.5748 7.99494C33.6276 10.6844 35.5412 14.4359 35.9262 18.4862C36.3113 22.5365 35.1389 26.5814 32.6475 29.798H32.6495ZM19.9995 32C23.1821 32 26.2344 30.7357 28.4848 28.4853C30.7353 26.2348 31.9995 23.1826 31.9995 20C31.9995 16.8174 30.7353 13.7651 28.4848 11.5147C26.2344 9.26426 23.1821 7.99998 19.9995 7.99998C16.8169 7.99998 13.7647 9.26426 11.5143 11.5147C9.26382 13.7651 7.99954 16.8174 7.99954 20C7.99954 23.1826 9.26382 26.2348 11.5143 28.4853C13.7647 30.7357 16.8169 32 19.9995 32Z" fill="#6B46C1"/>
</svg>
