<svg width="48" height="48" viewBox="0 0 48 48" fill="none" xmlns="http://www.w3.org/2000/svg">
<path fill-rule="evenodd" clip-rule="evenodd" d="M44 30.0941C43.9996 30.169 43.9943 30.2439 43.984 30.3181L43.972 30.3921L43.94 30.5361C43.934 30.5661 43.924 30.5921 43.914 30.6201L43.87 30.7461L43.83 30.8301C43.814 30.8701 43.794 30.9061 43.774 30.9441L43.724 31.0241C43.6624 31.1219 43.5899 31.2125 43.508 31.2941L43.438 31.3621C43.4064 31.39 43.3737 31.4167 43.34 31.4421L43.264 31.5021C43.254 31.5081 43.244 31.5181 43.234 31.5221L24.954 43.7121C24.6717 43.9009 24.3397 44.0017 24 44.0017C23.6603 44.0017 23.3283 43.9009 23.046 43.7121L4.766 31.5241L4.738 31.5041C4.67609 31.4609 4.61727 31.4135 4.562 31.3621C4.538 31.3421 4.516 31.3181 4.494 31.2941C4.464 31.2641 4.434 31.2341 4.408 31.2021C4.35933 31.1457 4.31519 31.0855 4.276 31.0221C4.23663 30.96 4.20058 30.896 4.168 30.8301L4.13 30.7461C4.11372 30.7047 4.09905 30.6626 4.086 30.6201C4.076 30.5921 4.066 30.5661 4.06 30.5361C4.046 30.4901 4.04 30.4401 4.03 30.3921L4.016 30.3181C4.00572 30.2439 4.00037 30.169 4 30.0941V17.9061C4 17.8301 4.006 17.7561 4.016 17.6821L4.03 17.6081C4.038 17.5601 4.046 17.5101 4.06 17.4641C4.11331 17.2489 4.21221 17.0477 4.35 16.8741C4.36871 16.8483 4.38805 16.8229 4.408 16.7981L4.494 16.7061L4.562 16.6381C4.61745 16.5875 4.67625 16.5407 4.738 16.4981C4.748 16.4921 4.756 16.4821 4.766 16.4781L23.046 4.28808C23.3285 4.09976 23.6605 3.99927 24 3.99927C24.3395 3.99927 24.6715 4.09976 24.954 4.28808L43.234 16.4761C43.244 16.4821 43.254 16.4921 43.264 16.4961L43.34 16.5561C43.3744 16.5821 43.4077 16.6095 43.44 16.6381L43.508 16.7061C43.5905 16.7879 43.663 16.8792 43.724 16.9781L43.774 17.0581L43.832 17.1701L43.87 17.2541L43.914 17.3801C43.924 17.4081 43.934 17.4341 43.94 17.4641C43.954 17.5101 43.962 17.5601 43.972 17.6081L43.984 17.6821C43.9944 17.7563 43.9997 17.8311 44 17.9061V30.0941ZM7.438 21.1241V26.8761L11.738 24.0001L7.438 21.1241ZM22.282 16.9481V8.93009L8.814 17.9101L14.83 21.9321L22.282 16.9481ZM39.186 17.9081L25.72 8.93009V16.9481L33.172 21.9321L39.186 17.9081ZM8.814 30.0921L22.282 39.0701V31.0521L14.83 26.0681L8.814 30.0921ZM25.72 31.0521V39.0701L39.186 30.0901L33.172 26.0701L25.72 31.0521ZM24 19.9321L17.92 24.0001L24 28.0661L30.08 24.0001L24 19.9341V19.9321ZM40.562 26.8761V21.1241L36.262 24.0001L40.562 26.8761Z" fill="#6B46C1"/>
</svg>
