<svg width="11" height="11" viewBox="0 0 11 11" fill="none" xmlns="http://www.w3.org/2000/svg">
<path fill-rule="evenodd" clip-rule="evenodd" d="M0.25 5.5C0.25 5.32595 0.319141 5.15903 0.442211 5.03596C0.565282 4.91289 0.732202 4.84375 0.90625 4.84375H8.50956L5.69162 2.02713C5.5684 1.9039 5.49917 1.73677 5.49917 1.5625C5.49917 1.38823 5.5684 1.2211 5.69162 1.09788C5.81485 0.97465 5.98198 0.905422 6.15625 0.905422C6.33052 0.905422 6.49765 0.97465 6.62088 1.09788L10.5584 5.03538C10.6195 5.09634 10.668 5.16875 10.7011 5.24848C10.7341 5.32821 10.7512 5.41368 10.7512 5.5C10.7512 5.58632 10.7341 5.67179 10.7011 5.75152C10.668 5.83125 10.6195 5.90367 10.5584 5.96463L6.62088 9.90213C6.49765 10.0254 6.33052 10.0946 6.15625 10.0946C5.98198 10.0946 5.81485 10.0254 5.69162 9.90213C5.5684 9.7789 5.49917 9.61177 5.49917 9.4375C5.49917 9.26323 5.5684 9.0961 5.69162 8.97288L8.50956 6.15625H0.90625C0.732202 6.15625 0.565282 6.08711 0.442211 5.96404C0.319141 5.84097 0.25 5.67405 0.25 5.5Z" fill="white"/>
</svg>
