<svg width="40" height="32" viewBox="0 0 40 32" fill="none" xmlns="http://www.w3.org/2000/svg">
<path d="M4 0H36C37.0609 0 38.0783 0.421427 38.8284 1.17157C39.5786 1.92172 40 2.93913 40 4V28C40 29.0609 39.5786 30.0783 38.8284 30.8284C38.0783 31.5786 37.0609 32 36 32H4C2.93913 32 1.92172 31.5786 1.17157 30.8284C0.421427 30.0783 0 29.0609 0 28V4C0 2.93913 0.421427 1.92172 1.17157 1.17157C1.92172 0.421427 2.93913 0 4 0ZM4 4V28H36V4H4ZM20 20H32V24H20V20ZM17.97 15.142L10.9 22.214L8.072 19.384L12.312 15.144L8.072 10.9L10.9 8.072L17.97 15.142Z" fill="#6B46C1"/>
</svg>
