<svg width="48" height="48" viewBox="0 0 48 48" fill="none" xmlns="http://www.w3.org/2000/svg">
<path fill-rule="evenodd" clip-rule="evenodd" d="M21.05 43.784C22.0166 41.9944 22.2653 39.9039 21.7455 37.9375C21.2257 35.9711 19.9764 34.2766 18.2517 33.1985C16.527 32.1203 14.4564 31.7396 12.4611 32.1337C10.4657 32.5278 8.69532 33.6671 7.51002 35.32C5.21793 31.9905 3.99367 28.0422 4.00002 24C4.00002 12.954 12.954 4 24 4C35.046 4 44 12.954 44 24C44 35.046 35.046 44 24 44C22.998 44 22.012 43.926 21.05 43.784ZM18 18C19.0609 18 20.0783 17.5786 20.8285 16.8284C21.5786 16.0783 22 15.0609 22 14C22 12.9391 21.5786 11.9217 20.8285 11.1716C20.0783 10.4214 19.0609 10 18 10C16.9392 10 15.9217 10.4214 15.1716 11.1716C14.4215 11.9217 14 12.9391 14 14C14 15.0609 14.4215 16.0783 15.1716 16.8284C15.9217 17.5786 16.9392 18 18 18ZM30 18C31.0609 18 32.0783 17.5786 32.8285 16.8284C33.5786 16.0783 34 15.0609 34 14C34 12.9391 33.5786 11.9217 32.8285 11.1716C32.0783 10.4214 31.0609 10 30 10C28.9392 10 27.9217 10.4214 27.1716 11.1716C26.4215 11.9217 26 12.9391 26 14C26 15.0609 26.4215 16.0783 27.1716 16.8284C27.9217 17.5786 28.9392 18 30 18ZM36 28C37.0609 28 38.0783 27.5786 38.8284 26.8284C39.5786 26.0783 40 25.0609 40 24C40 22.9391 39.5786 21.9217 38.8284 21.1716C38.0783 20.4214 37.0609 20 36 20C34.9392 20 33.9217 20.4214 33.1716 21.1716C32.4215 21.9217 32 22.9391 32 24C32 25.0609 32.4215 26.0783 33.1716 26.8284C33.9217 27.5786 34.9392 28 36 28ZM12 28C13.0609 28 14.0783 27.5786 14.8285 26.8284C15.5786 26.0783 16 25.0609 16 24C16 22.9391 15.5786 21.9217 14.8285 21.1716C14.0783 20.4214 13.0609 20 12 20C10.9392 20 9.92174 20.4214 9.1716 21.1716C8.42145 21.9217 8.00002 22.9391 8.00002 24C8.00002 25.0609 8.42145 26.0783 9.1716 26.8284C9.92174 27.5786 10.9392 28 12 28ZM30 38C31.0609 38 32.0783 37.5786 32.8285 36.8284C33.5786 36.0783 34 35.0609 34 34C34 32.9391 33.5786 31.9217 32.8285 31.1716C32.0783 30.4214 31.0609 30 30 30C28.9392 30 27.9217 30.4214 27.1716 31.1716C26.4215 31.9217 26 32.9391 26 34C26 35.0609 26.4215 36.0783 27.1716 36.8284C27.9217 37.5786 28.9392 38 30 38Z" fill="#6B46C1"/>
</svg>
