<svg width="48" height="48" viewBox="0 0 48 48" fill="none" xmlns="http://www.w3.org/2000/svg">
<path d="M8 8H40C41.0609 8 42.0783 8.42143 42.8284 9.17157C43.5786 9.92172 44 10.9391 44 12V36C44 37.0609 43.5786 38.0783 42.8284 38.8284C42.0783 39.5786 41.0609 40 40 40H8C6.93913 40 5.92172 39.5786 5.17157 38.8284C4.42143 38.0783 4 37.0609 4 36V12C4 10.9391 4.42143 9.92172 5.17157 9.17157C5.92172 8.42143 6.93913 8 8 8ZM8 12V36H40V12H8ZM24 28H36V32H24V28ZM21.97 23.142L14.9 30.214L12.072 27.384L16.312 23.144L12.072 18.9L14.9 16.072L21.97 23.142Z" fill="#6B46C1"/>
</svg>
